NotoSansThaiUI-Light.ufo
<glyph name="uni02BC" format="2">
  <advance width="127"/>
  <unicode hex="02BC"/>
  <outline>
    <contour>
      <point x="96" y="714" type="line"/>
      <point x="74" y="714" type="line"/>
      <point x="67" y="642"/>
      <point x="44" y="539"/>
      <point x="15" y="469" type="curve"/>
      <point x="33" y="469" type="line"/>
      <point x="63" y="538"/>
      <point x="90" y="623"/>
      <point x="101" y="705" type="curve"/>
    </contour>
  </outline>
</glyph>
<glyph name="tildecomb" format="2">
  <unicode hex="0303"/>
  <anchor x="-80" y="511" name="_top"/>
  <outline>
    <contour>
      <point x="-120" y="716" type="curve"/>
      <point x="-144" y="716" type="line"/>
      <point x="-150" y="655"/>
      <point x="-178" y="641"/>
      <point x="-205" y="641" type="curve" smooth="yes"/>
      <point x="-255" y="641"/>
      <point x="-281" y="716"/>
      <point x="-342" y="716" type="curve" smooth="yes"/>
      <point x="-391" y="716"/>
      <point x="-422" y="684"/>
      <point x="-427" y="618" type="curve"/>
      <point x="-402" y="618" type="line"/>
      <point x="-397" y="678"/>
      <point x="-370" y="692"/>
      <point x="-344" y="692" type="curve" smooth="yes"/>
      <point x="-290" y="692"/>
      <point x="-269" y="617"/>
      <point x="-206" y="617" type="curve"/>
      <point x="-158" y="617"/>
      <point x="-124" y="651"/>
    </contour>
  </outline>
</glyph>
<glyph name="macronbelowcomb" format="2">
  <unicode hex="0331"/>
  <anchor x="-37" y="0" name="_bottom"/>
  <outline>
    <contour>
      <point x="-120" y="-102" type="line"/>
      <point x="-362" y="-102" type="line"/>
      <point x="-362" y="-126" type="line"/>
      <point x="-120" y="-126" type="line"/>
    </contour>
  </outline>
</glyph>
<glyph name="koKai-thai" format="2">
  <advance width="579"/>
  <unicode hex="0E01"/>
  <note>
uni0E01
</note>
  <anchor x="487" y="0" name="bottom"/>
  <anchor x="477" y="506" name="top"/>
  <outline>
    <contour>
      <point x="87" y="0" type="line"/>
      <point x="113" y="0" type="line"/>
      <point x="113" y="200" type="line" smooth="yes"/>
      <point x="113" y="268"/>
      <point x="160" y="295"/>
      <point x="213" y="300" type="curve"/>
      <point x="219" y="330" type="line"/>
      <point x="105" y="378" type="line"/>
      <point x="105" y="446"/>
      <point x="173" y="500"/>
      <point x="284" y="500" type="curve" smooth="yes"/>
      <point x="390" y="500"/>
      <point x="461" y="450"/>
      <point x="461" y="347" type="curve" smooth="yes"/>
      <point x="461" y="0" type="line"/>
      <point x="487" y="0" type="line"/>
      <point x="487" y="353" type="line" smooth="yes"/>
      <point x="487" y="465"/>
      <point x="404" y="525"/>
      <point x="284" y="525" type="curve" smooth="yes"/>
      <point x="153" y="525"/>
      <point x="78" y="454"/>
      <point x="78" y="381" type="curve" smooth="yes"/>
      <point x="78" y="363" type="line"/>
      <point x="193" y="321" type="line"/>
      <point x="192" y="318" type="line"/>
      <point x="137" y="305"/>
      <point x="87" y="275"/>
      <point x="87" y="200" type="curve" smooth="yes"/>
    </contour>
  </outline>
</glyph>
<glyph name="khoKhai-thai" format="2">
  <advance width="534"/>
  <unicode hex="0E02"/>
  <note>
uni0E02
</note>
  <anchor x="422" y="0" name="bottom"/>
  <anchor x="442" y="506" name="top"/>
  <outline>
    <contour>
      <point x="265" y="-9" type="curve" smooth="yes"/>
      <point x="378" y="-9"/>
      <point x="442" y="44"/>
      <point x="442" y="138" type="curve" smooth="yes"/>
      <point x="442" y="517" type="line"/>
      <point x="416" y="517" type="line"/>
      <point x="416" y="139" type="line" smooth="yes"/>
      <point x="416" y="64"/>
      <point x="369" y="15"/>
      <point x="266" y="15" type="curve" smooth="yes"/>
      <point x="172" y="15"/>
      <point x="113" y="55"/>
      <point x="113" y="150" type="curve" smooth="yes"/>
      <point x="113" y="229" type="line" smooth="yes"/>
      <point x="113" y="280"/>
      <point x="132" y="305"/>
      <point x="164" y="341" type="curve" smooth="yes"/>
      <point x="195" y="376"/>
      <point x="220" y="405"/>
      <point x="220" y="449" type="curve" smooth="yes"/>
      <point x="220" y="506"/>
      <point x="177" y="523"/>
      <point x="138" y="523" type="curve" smooth="yes"/>
      <point x="111" y="523"/>
      <point x="85" y="515"/>
      <point x="65" y="505" type="curve"/>
      <point x="73" y="482" type="line"/>
      <point x="85" y="488"/>
      <point x="112" y="498"/>
      <point x="139" y="498" type="curve" smooth="yes"/>
      <point x="166" y="498"/>
      <point x="194" y="488"/>
      <point x="194" y="448" type="curve" smooth="yes"/>
      <point x="194" y="415"/>
      <point x="175" y="391"/>
      <point x="143" y="355" type="curve" smooth="yes"/>
      <point x="109" y="317"/>
      <point x="87" y="290"/>
      <point x="87" y="228" type="curve" smooth="yes"/>
      <point x="87" y="149" type="line" smooth="yes"/>
      <point x="87" y="39"/>
      <point x="158" y="-9"/>
    </contour>
  </outline>
</glyph>
<glyph name="khoKhuat-thai" format="2">
  <advance width="531"/>
  <unicode hex="0E03"/>
  <anchor x="419" y="0" name="bottom"/>
  <anchor x="439" y="506" name="top"/>
  <outline>
    <contour>
      <point x="258" y="-9" type="curve" smooth="yes"/>
      <point x="372" y="-9"/>
      <point x="439" y="44"/>
      <point x="439" y="138" type="curve" smooth="yes"/>
      <point x="439" y="517" type="line"/>
      <point x="413" y="517" type="line"/>
      <point x="413" y="139" type="line" smooth="yes"/>
      <point x="413" y="64"/>
      <point x="362" y="15"/>
      <point x="259" y="15" type="curve" smooth="yes"/>
      <point x="167" y="15"/>
      <point x="108" y="54"/>
      <point x="108" y="151" type="curve" smooth="yes"/>
      <point x="108" y="225" type="line" smooth="yes"/>
      <point x="108" y="279"/>
      <point x="134" y="308"/>
      <point x="169" y="346" type="curve" smooth="yes"/>
      <point x="207" y="387"/>
      <point x="220" y="400"/>
      <point x="220" y="460" type="curve" smooth="yes"/>
      <point x="220" y="517" type="line"/>
      <point x="201" y="517" type="line"/>
      <point x="193" y="468" type="line"/>
      <point x="173" y="449"/>
      <point x="155" y="445"/>
      <point x="136" y="445" type="curve" smooth="yes"/>
      <point x="97" y="445"/>
      <point x="81" y="460"/>
      <point x="81" y="517" type="curve"/>
      <point x="56" y="517" type="line"/>
      <point x="56" y="498" type="line" smooth="yes"/>
      <point x="56" y="446"/>
      <point x="87" y="423"/>
      <point x="129" y="423" type="curve" smooth="yes"/>
      <point x="160" y="423"/>
      <point x="181" y="436"/>
      <point x="193" y="448" type="curve"/>
      <point x="196" y="447" type="line"/>
      <point x="196" y="413"/>
      <point x="187" y="401"/>
      <point x="148" y="359" type="curve" smooth="yes"/>
      <point x="115" y="323"/>
      <point x="82" y="286"/>
      <point x="82" y="229" type="curve" smooth="yes"/>
      <point x="82" y="149" type="line" smooth="yes"/>
      <point x="82" y="39"/>
      <point x="150" y="-9"/>
    </contour>
  </outline>
</glyph>
<glyph name="khoKhwai-thai" format="2">
  <advance width="602"/>
  <unicode hex="0E04"/>
  <note>
uni0E04
</note>
  <anchor x="510" y="0" name="bottom"/>
  <anchor x="500" y="506" name="top"/>
  <outline>
    <contour>
      <point x="92" y="0" type="line"/>
      <point x="118" y="0" type="line"/>
      <point x="118" y="128" type="line" smooth="yes"/>
      <point x="118" y="208"/>
      <point x="184" y="255"/>
      <point x="280" y="255" type="curve" smooth="yes"/>
      <point x="331" y="255" type="line"/>
      <point x="331" y="279" type="line"/>
      <point x="277" y="279" type="line" smooth="yes"/>
      <point x="195" y="279"/>
      <point x="148" y="250"/>
      <point x="121" y="206" type="curve"/>
      <point x="118" y="207" type="line"/>
      <point x="118" y="346" type="line" smooth="yes"/>
      <point x="118" y="447"/>
      <point x="188" y="500"/>
      <point x="301" y="500" type="curve" smooth="yes"/>
      <point x="414" y="500"/>
      <point x="484" y="447"/>
      <point x="484" y="346" type="curve" smooth="yes"/>
      <point x="484" y="0" type="line"/>
      <point x="510" y="0" type="line"/>
      <point x="510" y="348" type="line" smooth="yes"/>
      <point x="510" y="461"/>
      <point x="430" y="525"/>
      <point x="301" y="525" type="curve" smooth="yes"/>
      <point x="172" y="525"/>
      <point x="92" y="461"/>
      <point x="92" y="348" type="curve" smooth="yes"/>
    </contour>
  </outline>
</glyph>
<glyph name="khoKhon-thai" format="2">
  <advance width="608"/>
  <unicode hex="0E05"/>
  <anchor x="516" y="0" name="bottom"/>
  <anchor x="506" y="506" name="top"/>
  <outline>
    <contour>
      <point x="92" y="0" type="line"/>
      <point x="118" y="0" type="line"/>
      <point x="118" y="128" type="line" smooth="yes"/>
      <point x="118" y="208"/>
      <point x="187" y="255"/>
      <point x="283" y="255" type="curve" smooth="yes"/>
      <point x="334" y="255" type="line"/>
      <point x="334" y="279" type="line"/>
      <point x="280" y="279" type="line" smooth="yes"/>
      <point x="198" y="279"/>
      <point x="148" y="250"/>
      <point x="121" y="206" type="curve"/>
      <point x="118" y="207" type="line"/>
      <point x="118" y="405" type="line" smooth="yes"/>
      <point x="118" y="473"/>
      <point x="155" y="501"/>
      <point x="205" y="501" type="curve" smooth="yes"/>
      <point x="253" y="501"/>
      <point x="287" y="475"/>
      <point x="292" y="434" type="curve"/>
      <point x="316" y="434" type="line"/>
      <point x="321" y="475"/>
      <point x="355" y="501"/>
      <point x="403" y="501" type="curve" smooth="yes"/>
      <point x="453" y="501"/>
      <point x="490" y="473"/>
      <point x="490" y="405" type="curve" smooth="yes"/>
      <point x="490" y="0" type="line"/>
      <point x="516" y="0" type="line"/>
      <point x="516" y="407" type="line" smooth="yes"/>
      <point x="516" y="489"/>
      <point x="470" y="525"/>
      <point x="406" y="525" type="curve" smooth="yes"/>
      <point x="354" y="525"/>
      <point x="316" y="500"/>
      <point x="306" y="466" type="curve"/>
      <point x="302" y="466" type="line"/>
      <point x="292" y="500"/>
      <point x="254" y="525"/>
      <point x="202" y="525" type="curve" smooth="yes"/>
      <point x="138" y="525"/>
      <point x="92" y="489"/>
      <point x="92" y="407" type="curve" smooth="yes"/>
    </contour>
  </outline>
</glyph>
<glyph name="khoRakhang-thai" format="2">
  <advance width="586"/>
  <unicode hex="0E06"/>
  <anchor x="474" y="0" name="bottom"/>
  <anchor x="494" y="506" name="top"/>
  <outline>
    <contour>
      <point x="310" y="-9" type="curve" smooth="yes"/>
      <point x="415" y="-9"/>
      <point x="494" y="43"/>
      <point x="494" y="156" type="curve" smooth="yes"/>
      <point x="494" y="517" type="line"/>
      <point x="468" y="517" type="line"/>
      <point x="468" y="159" type="line" smooth="yes"/>
      <point x="468" y="65"/>
      <point x="407" y="15"/>
      <point x="311" y="15" type="curve" smooth="yes"/>
      <point x="190" y="15"/>
      <point x="110" y="93"/>
      <point x="110" y="195" type="curve" smooth="yes"/>
      <point x="110" y="222" type="line" smooth="yes"/>
      <point x="110" y="276"/>
      <point x="134" y="305"/>
      <point x="171" y="346" type="curve" smooth="yes"/>
      <point x="209" y="388"/>
      <point x="226" y="405"/>
      <point x="226" y="460" type="curve" smooth="yes"/>
      <point x="226" y="517" type="line"/>
      <point x="207" y="517" type="line"/>
      <point x="199" y="468" type="line"/>
      <point x="179" y="449"/>
      <point x="161" y="445"/>
      <point x="142" y="445" type="curve" smooth="yes"/>
      <point x="103" y="445"/>
      <point x="87" y="460"/>
      <point x="87" y="517" type="curve"/>
      <point x="62" y="517" type="line"/>
      <point x="62" y="498" type="line" smooth="yes"/>
      <point x="62" y="446"/>
      <point x="93" y="423"/>
      <point x="135" y="423" type="curve" smooth="yes"/>
      <point x="166" y="423"/>
      <point x="187" y="436"/>
      <point x="199" y="448" type="curve"/>
      <point x="202" y="447" type="line"/>
      <point x="202" y="414"/>
      <point x="190" y="401"/>
      <point x="150" y="359" type="curve" smooth="yes"/>
      <point x="116" y="324"/>
      <point x="84" y="282"/>
      <point x="84" y="225" type="curve" smooth="yes"/>
      <point x="84" y="0" type="line"/>
      <point x="107" y="0" type="line"/>
      <point x="111" y="99" type="line"/>
      <point x="115" y="99" type="line"/>
      <point x="149" y="35"/>
      <point x="213" y="-9"/>
    </contour>
  </outline>
</glyph>
<glyph name="ngoNgu-thai" format="2">
  <advance width="523"/>
  <unicode hex="0E07"/>
  <note>
uni0E07
</note>
  <anchor x="344" y="0" name="bottom"/>
  <anchor x="424" y="506" name="top"/>
  <outline>
    <contour>
      <point x="186" y="0" type="line"/>
      <point x="213" y="0" type="line" smooth="yes"/>
      <point x="276" y="0"/>
      <point x="328" y="18"/>
      <point x="366" y="48" type="curve" smooth="yes"/>
      <point x="427" y="97"/>
      <point x="457" y="178"/>
      <point x="457" y="281" type="curve" smooth="yes"/>
      <point x="457" y="354"/>
      <point x="444" y="419"/>
      <point x="406" y="462" type="curve" smooth="yes"/>
      <point x="373" y="500"/>
      <point x="325" y="522"/>
      <point x="258" y="522" type="curve" smooth="yes"/>
      <point x="243" y="522"/>
      <point x="218" y="520"/>
      <point x="202" y="514" type="curve"/>
      <point x="210" y="491" type="line"/>
      <point x="219" y="493"/>
      <point x="242" y="497"/>
      <point x="257" y="497" type="curve" smooth="yes"/>
      <point x="370" y="497"/>
      <point x="431" y="419"/>
      <point x="431" y="284" type="curve" smooth="yes"/>
      <point x="431" y="191"/>
      <point x="402" y="109"/>
      <point x="346" y="67" type="curve" smooth="yes"/>
      <point x="310" y="40"/>
      <point x="271" y="25"/>
      <point x="222" y="25" type="curve" smooth="yes"/>
      <point x="206" y="25" type="line"/>
      <point x="44" y="517" type="line"/>
      <point x="17" y="517" type="line"/>
    </contour>
  </outline>
</glyph>
<glyph name="choChan-thai" format="2">
  <advance width="518"/>
  <unicode hex="0E08"/>
  <anchor x="380" y="0" name="bottom"/>
  <anchor x="430" y="506" name="top"/>
  <outline>
    <contour>
      <point x="170" y="0" type="line"/>
      <point x="198" y="0" type="line" smooth="yes"/>
      <point x="360" y="0"/>
      <point x="444" y="68"/>
      <point x="444" y="259" type="curve" smooth="yes"/>
      <point x="444" y="443"/>
      <point x="385" y="525"/>
      <point x="226" y="525" type="curve" smooth="yes"/>
      <point x="153" y="525"/>
      <point x="87" y="501"/>
      <point x="49" y="482" type="curve"/>
      <point x="49" y="454" type="line"/>
      <point x="102" y="482"/>
      <point x="159" y="500"/>
      <point x="219" y="500" type="curve" smooth="yes"/>
      <point x="359" y="500"/>
      <point x="416" y="437"/>
      <point x="416" y="260" type="curve" smooth="yes"/>
      <point x="416" y="78"/>
      <point x="330" y="25"/>
      <point x="211" y="25" type="curve" smooth="yes"/>
      <point x="196" y="25" type="line"/>
      <point x="196" y="283" type="line"/>
      <point x="96" y="283" type="line"/>
      <point x="96" y="261" type="line"/>
      <point x="170" y="261" type="line"/>
    </contour>
  </outline>
</glyph>
<glyph name="choChing-thai" format="2">
  <advance width="594"/>
  <unicode hex="0E09"/>
  <anchor x="502" y="0" name="bottom"/>
  <anchor x="492" y="506" name="top"/>
  <outline>
    <contour>
      <point x="271" y="-9" type="curve" smooth="yes"/>
      <point x="371" y="-9"/>
      <point x="435" y="27"/>
      <point x="471" y="93" type="curve"/>
      <point x="475" y="93" type="line"/>
      <point x="478" y="0" type="line"/>
      <point x="502" y="0" type="line"/>
      <point x="502" y="327" type="line" smooth="yes"/>
      <point x="502" y="471"/>
      <point x="416" y="525"/>
      <point x="285" y="525" type="curve" smooth="yes"/>
      <point x="205" y="525"/>
      <point x="137" y="504"/>
      <point x="100" y="484" type="curve"/>
      <point x="100" y="456" type="line"/>
      <point x="153" y="485"/>
      <point x="214" y="500"/>
      <point x="276" y="500" type="curve" smooth="yes"/>
      <point x="412" y="500"/>
      <point x="476" y="449"/>
      <point x="476" y="320" type="curve" smooth="yes"/>
      <point x="476" y="195" type="line" smooth="yes"/>
      <point x="476" y="86"/>
      <point x="397" y="15"/>
      <point x="279" y="15" type="curve" smooth="yes"/>
      <point x="177" y="15"/>
      <point x="118" y="71"/>
      <point x="118" y="163" type="curve" smooth="yes"/>
      <point x="118" y="295" type="line"/>
      <point x="92" y="295" type="line"/>
      <point x="92" y="161" type="line" smooth="yes"/>
      <point x="92" y="48"/>
      <point x="170" y="-9"/>
    </contour>
  </outline>
</glyph>
<glyph name="choChang-thai" format="2">
  <advance width="531"/>
  <unicode hex="0E0A"/>
  <anchor x="418" y="0" name="bottom"/>
  <anchor x="454" y="506" name="top"/>
  <outline>
    <contour>
      <point x="263" y="-9" type="curve" smooth="yes"/>
      <point x="373" y="-9"/>
      <point x="438" y="44"/>
      <point x="438" y="138" type="curve" smooth="yes"/>
      <point x="438" y="294" type="line" smooth="yes"/>
      <point x="438" y="336"/>
      <point x="422" y="368"/>
      <point x="371" y="386" type="curve"/>
      <point x="371" y="389" type="line"/>
      <point x="421" y="408"/>
      <point x="445" y="446"/>
      <point x="445" y="517" type="curve"/>
      <point x="419" y="517" type="line"/>
      <point x="419" y="450"/>
      <point x="392" y="398"/>
      <point x="322" y="398" type="curve" smooth="yes"/>
      <point x="305" y="398" type="line"/>
      <point x="305" y="377" type="line"/>
      <point x="321" y="377" type="line" smooth="yes"/>
      <point x="369" y="377"/>
      <point x="412" y="350"/>
      <point x="412" y="293" type="curve" smooth="yes"/>
      <point x="412" y="139" type="line" smooth="yes"/>
      <point x="412" y="64"/>
      <point x="364" y="15"/>
      <point x="263" y="15" type="curve" smooth="yes"/>
      <point x="167" y="15"/>
      <point x="109" y="55"/>
      <point x="109" y="151" type="curve" smooth="yes"/>
      <point x="109" y="229" type="line" smooth="yes"/>
      <point x="109" y="280"/>
      <point x="128" y="305"/>
      <point x="160" y="341" type="curve" smooth="yes"/>
      <point x="191" y="376"/>
      <point x="216" y="404"/>
      <point x="216" y="450" type="curve" smooth="yes"/>
      <point x="216" y="506"/>
      <point x="171" y="523"/>
      <point x="137" y="523" type="curve" smooth="yes"/>
      <point x="109" y="523"/>
      <point x="85" y="516"/>
      <point x="65" y="507" type="curve"/>
      <point x="73" y="484" type="line"/>
      <point x="85" y="490"/>
      <point x="110" y="498"/>
      <point x="131" y="498" type="curve" smooth="yes"/>
      <point x="164" y="498"/>
      <point x="190" y="488"/>
      <point x="190" y="447" type="curve" smooth="yes"/>
      <point x="190" y="416"/>
      <point x="171" y="390"/>
      <point x="139" y="355" type="curve" smooth="yes"/>
      <point x="107" y="320"/>
      <point x="83" y="290"/>
      <point x="83" y="228" type="curve" smooth="yes"/>
      <point x="83" y="149" type="line" smooth="yes"/>
      <point x="83" y="39"/>
      <point x="153" y="-9"/>
    </contour>
  </outline>
</glyph>
<glyph name="soSo-thai" format="2">
  <advance width="536"/>
  <unicode hex="0E0B"/>
  <note>
uni0E0B
</note>
  <anchor x="423" y="0" name="bottom"/>
  <anchor x="449" y="506" name="top"/>
  <outline>
    <contour>
      <point x="264" y="-9" type="curve" smooth="yes"/>
      <point x="375" y="-9"/>
      <point x="443" y="44"/>
      <point x="443" y="138" type="curve" smooth="yes"/>
      <point x="443" y="294" type="line" smooth="yes"/>
      <point x="443" y="336"/>
      <point x="425" y="369"/>
      <point x="374" y="387" type="curve"/>
      <point x="374" y="390" type="line"/>
      <point x="426" y="408"/>
      <point x="450" y="446"/>
      <point x="450" y="517" type="curve"/>
      <point x="424" y="517" type="line"/>
      <point x="424" y="450"/>
      <point x="397" y="398"/>
      <point x="327" y="398" type="curve" smooth="yes"/>
      <point x="310" y="398" type="line"/>
      <point x="310" y="377" type="line"/>
      <point x="326" y="377" type="line" smooth="yes"/>
      <point x="374" y="377"/>
      <point x="417" y="350"/>
      <point x="417" y="293" type="curve" smooth="yes"/>
      <point x="417" y="139" type="line" smooth="yes"/>
      <point x="417" y="64"/>
      <point x="366" y="15"/>
      <point x="264" y="15" type="curve" smooth="yes"/>
      <point x="171" y="15"/>
      <point x="112" y="54"/>
      <point x="112" y="151" type="curve" smooth="yes"/>
      <point x="112" y="228" type="line" smooth="yes"/>
      <point x="112" y="278"/>
      <point x="131" y="306"/>
      <point x="169" y="346" type="curve" smooth="yes"/>
      <point x="207" y="386"/>
      <point x="220" y="400"/>
      <point x="220" y="460" type="curve" smooth="yes"/>
      <point x="220" y="517" type="line"/>
      <point x="201" y="517" type="line"/>
      <point x="193" y="468" type="line"/>
      <point x="176" y="451"/>
      <point x="158" y="445"/>
      <point x="138" y="445" type="curve" smooth="yes"/>
      <point x="97" y="445"/>
      <point x="81" y="458"/>
      <point x="81" y="517" type="curve"/>
      <point x="56" y="517" type="line"/>
      <point x="56" y="498" type="line" smooth="yes"/>
      <point x="56" y="446"/>
      <point x="87" y="423"/>
      <point x="130" y="423" type="curve" smooth="yes"/>
      <point x="160" y="423"/>
      <point x="181" y="436"/>
      <point x="193" y="448" type="curve"/>
      <point x="196" y="447" type="line"/>
      <point x="196" y="414"/>
      <point x="186" y="399"/>
      <point x="148" y="359" type="curve" smooth="yes"/>
      <point x="115" y="324"/>
      <point x="86" y="286"/>
      <point x="86" y="229" type="curve" smooth="yes"/>
      <point x="86" y="149" type="line" smooth="yes"/>
      <point x="86" y="39"/>
      <point x="153" y="-9"/>
    </contour>
  </outline>
</glyph>
<glyph name="choChoe-thai" format="2">
  <advance width="890"/>
  <unicode hex="0E0C"/>
  <anchor x="777" y="0" name="bottom"/>
  <anchor x="797" y="506" name="top"/>
  <outline>
    <contour>
      <point x="192" y="-7" type="curve" smooth="yes"/>
      <point x="215" y="-7"/>
      <point x="233" y="-3"/>
      <point x="253" y="5" type="curve"/>
      <point x="247" y="27" type="line"/>
      <point x="232" y="22"/>
      <point x="210" y="17"/>
      <point x="190" y="17" type="curve" smooth="yes"/>
      <point x="146" y="17"/>
      <point x="116" y="39"/>
      <point x="116" y="84" type="curve" smooth="yes"/>
      <point x="116" y="201" type="line" smooth="yes"/>
      <point x="116" y="268"/>
      <point x="159" y="295"/>
      <point x="212" y="300" type="curve"/>
      <point x="218" y="330" type="line"/>
      <point x="104" y="378" type="line"/>
      <point x="104" y="450"/>
      <point x="171" y="500"/>
      <point x="272" y="500" type="curve" smooth="yes"/>
      <point x="368" y="500"/>
      <point x="438" y="455"/>
      <point x="438" y="347" type="curve" smooth="yes"/>
      <point x="438" y="0" type="line"/>
      <point x="462" y="0" type="line"/>
      <point x="465" y="89" type="line"/>
      <point x="469" y="89" type="line"/>
      <point x="501" y="28"/>
      <point x="559" y="-9"/>
      <point x="640" y="-9" type="curve" smooth="yes"/>
      <point x="734" y="-9"/>
      <point x="798" y="41"/>
      <point x="798" y="144" type="curve" smooth="yes"/>
      <point x="798" y="517" type="line"/>
      <point x="772" y="517" type="line"/>
      <point x="772" y="148" type="line" smooth="yes"/>
      <point x="772" y="63"/>
      <point x="722" y="15"/>
      <point x="639" y="15" type="curve" smooth="yes"/>
      <point x="536" y="15"/>
      <point x="464" y="89"/>
      <point x="464" y="186" type="curve" smooth="yes"/>
      <point x="464" y="353" type="line" smooth="yes"/>
      <point x="464" y="469"/>
      <point x="382" y="525"/>
      <point x="272" y="525" type="curve" smooth="yes"/>
      <point x="151" y="525"/>
      <point x="77" y="459"/>
      <point x="77" y="381" type="curve" smooth="yes"/>
      <point x="77" y="363" type="line"/>
      <point x="192" y="321" type="line"/>
      <point x="191" y="318" type="line"/>
      <point x="136" y="305"/>
      <point x="90" y="275"/>
      <point x="90" y="200" type="curve" smooth="yes"/>
      <point x="90" y="83" type="line" smooth="yes"/>
      <point x="90" y="19"/>
      <point x="133" y="-7"/>
    </contour>
  </outline>
</glyph>
<glyph name="yoYing-thai" format="2">
  <advance width="898"/>
  <unicode hex="0E0D"/>
  <anchor x="794" y="-96" name="bottom"/>
  <anchor x="794" y="506" name="top"/>
  <outline>
    <contour>
      <point x="604" y="-140" type="curve" smooth="yes"/>
      <point x="716" y="-140"/>
      <point x="794" y="-95"/>
      <point x="794" y="33" type="curve" smooth="yes"/>
      <point x="794" y="517" type="line"/>
      <point x="768" y="517" type="line"/>
      <point x="768" y="195" type="line" smooth="yes"/>
      <point x="768" y="97"/>
      <point x="694" y="25"/>
      <point x="592" y="25" type="curve" smooth="yes"/>
      <point x="509" y="25"/>
      <point x="460" y="73"/>
      <point x="460" y="157" type="curve" smooth="yes"/>
      <point x="460" y="353" type="line" smooth="yes"/>
      <point x="460" y="471"/>
      <point x="380" y="525"/>
      <point x="270" y="525" type="curve" smooth="yes"/>
      <point x="151" y="525"/>
      <point x="77" y="461"/>
      <point x="77" y="381" type="curve" smooth="yes"/>
      <point x="77" y="363" type="line"/>
      <point x="192" y="321" type="line"/>
      <point x="191" y="318" type="line"/>
      <point x="136" y="305"/>
      <point x="90" y="275"/>
      <point x="90" y="200" type="curve" smooth="yes"/>
      <point x="90" y="83" type="line" smooth="yes"/>
      <point x="90" y="19"/>
      <point x="133" y="-7"/>
      <point x="192" y="-7" type="curve" smooth="yes"/>
      <point x="215" y="-7"/>
      <point x="233" y="-3"/>
      <point x="253" y="5" type="curve"/>
      <point x="247" y="27" type="line"/>
      <point x="232" y="22"/>
      <point x="210" y="17"/>
      <point x="190" y="17" type="curve" smooth="yes"/>
      <point x="146" y="17"/>
      <point x="116" y="39"/>
      <point x="116" y="84" type="curve" smooth="yes"/>
      <point x="116" y="201" type="line" smooth="yes"/>
      <point x="116" y="268"/>
      <point x="159" y="295"/>
      <point x="212" y="300" type="curve"/>
      <point x="218" y="330" type="line"/>
      <point x="104" y="378" type="line"/>
      <point x="104" y="452"/>
      <point x="170" y="500"/>
      <point x="270" y="500" type="curve" smooth="yes"/>
      <point x="365" y="500"/>
      <point x="434" y="457"/>
      <point x="434" y="347" type="curve" smooth="yes"/>
      <point x="434" y="153" type="line" smooth="yes"/>
      <point x="434" y="50"/>
      <point x="493" y="0"/>
      <point x="590" y="0" type="curve" smooth="yes"/>
      <point x="677" y="0"/>
      <point x="734" y="40"/>
      <point x="764" y="94" type="curve"/>
      <point x="768" y="94" type="line"/>
      <point x="768" y="36" type="line" smooth="yes"/>
      <point x="768" y="-82"/>
      <point x="695" y="-115"/>
      <point x="605" y="-115" type="curve" smooth="yes"/>
      <point x="549" y="-115"/>
      <point x="497" y="-102"/>
      <point x="454" y="-80" type="curve"/>
      <point x="454" y="-109" type="line"/>
      <point x="499" y="-129"/>
      <point x="548" y="-140"/>
    </contour>
  </outline>
</glyph>
<glyph name="toPatak-thai" format="2">
  <advance width="577"/>
  <unicode hex="0E0F"/>
  <anchor x="485" y="-165" name="bottom"/>
  <anchor x="475" y="506" name="top"/>
  <outline>
    <contour>
      <point x="80" y="-180" type="line"/>
      <point x="106" y="-180" type="line"/>
      <point x="106" y="-170" type="line" smooth="yes"/>
      <point x="106" y="-128"/>
      <point x="126" y="-100"/>
      <point x="172" y="-100" type="curve" smooth="yes"/>
      <point x="223" y="-100"/>
      <point x="259" y="-137"/>
      <point x="284" y="-180" type="curve"/>
      <point x="292" y="-180" type="line"/>
      <point x="376" y="-107" type="line"/>
      <point x="462" y="-180" type="line"/>
      <point x="485" y="-180" type="line"/>
      <point x="485" y="353" type="line" smooth="yes"/>
      <point x="485" y="465"/>
      <point x="403" y="525"/>
      <point x="283" y="525" type="curve" smooth="yes"/>
      <point x="152" y="525"/>
      <point x="78" y="454"/>
      <point x="78" y="381" type="curve" smooth="yes"/>
      <point x="78" y="363" type="line"/>
      <point x="193" y="321" type="line"/>
      <point x="192" y="318" type="line"/>
      <point x="137" y="305"/>
      <point x="98" y="275"/>
      <point x="98" y="200" type="curve" smooth="yes"/>
      <point x="98" y="61" type="line" smooth="yes"/>
      <point x="98" y="31"/>
      <point x="92" y="18"/>
      <point x="67" y="18" type="curve" smooth="yes"/>
      <point x="56" y="18"/>
      <point x="46" y="21"/>
      <point x="37" y="25" type="curve"/>
      <point x="30" y="2" type="line"/>
      <point x="43" y="-4"/>
      <point x="58" y="-7"/>
      <point x="70" y="-7" type="curve" smooth="yes"/>
      <point x="102" y="-7"/>
      <point x="124" y="10"/>
      <point x="124" y="56" type="curve" smooth="yes"/>
      <point x="124" y="201" type="line" smooth="yes"/>
      <point x="124" y="268"/>
      <point x="160" y="295"/>
      <point x="213" y="300" type="curve"/>
      <point x="219" y="330" type="line"/>
      <point x="105" y="378" type="line"/>
      <point x="105" y="446"/>
      <point x="172" y="500"/>
      <point x="282" y="500" type="curve" smooth="yes"/>
      <point x="389" y="500"/>
      <point x="459" y="450"/>
      <point x="459" y="347" type="curve" smooth="yes"/>
      <point x="459" y="-161" type="line"/>
      <point x="468" y="-157" type="line"/>
      <point x="376" y="-79" type="line"/>
      <point x="293" y="-152" type="line"/>
      <point x="268" y="-111"/>
      <point x="227" y="-75"/>
      <point x="170" y="-75" type="curve" smooth="yes"/>
      <point x="114" y="-75"/>
      <point x="80" y="-111"/>
      <point x="80" y="-166" type="curve" smooth="yes"/>
    </contour>
  </outline>
</glyph>
<glyph name="thoThan-thai" format="2">
  <advance width="532"/>
  <unicode hex="0E10"/>
  <anchor x="434" y="-152" name="bottom"/>
  <anchor x="448" y="506" name="top"/>
  <outline>
    <contour>
      <point x="166" y="0" type="line"/>
      <point x="194" y="0" type="line" smooth="yes"/>
      <point x="356" y="0"/>
      <point x="440" y="68"/>
      <point x="440" y="259" type="curve" smooth="yes"/>
      <point x="440" y="354"/>
      <point x="424" y="422"/>
      <point x="385" y="465" type="curve"/>
      <point x="353" y="506"/>
      <point x="299" y="525"/>
      <point x="222" y="525" type="curve" smooth="yes"/>
      <point x="149" y="525"/>
      <point x="83" y="501"/>
      <point x="45" y="482" type="curve"/>
      <point x="45" y="454" type="line"/>
      <point x="98" y="482"/>
      <point x="155" y="500"/>
      <point x="215" y="500" type="curve" smooth="yes"/>
      <point x="355" y="500"/>
      <point x="412" y="437"/>
      <point x="412" y="260" type="curve" smooth="yes"/>
      <point x="412" y="78"/>
      <point x="326" y="25"/>
      <point x="207" y="25" type="curve" smooth="yes"/>
      <point x="192" y="25" type="line"/>
      <point x="192" y="283" type="line"/>
      <point x="92" y="283" type="line"/>
      <point x="92" y="261" type="line"/>
      <point x="166" y="261" type="line"/>
    </contour>
    <contour>
      <point x="66" y="-180" type="line"/>
      <point x="92" y="-180" type="line"/>
      <point x="92" y="-170" type="line" smooth="yes"/>
      <point x="92" y="-128"/>
      <point x="108" y="-100"/>
      <point x="151" y="-100" type="curve" smooth="yes"/>
      <point x="196" y="-100"/>
      <point x="227" y="-140"/>
      <point x="252" y="-180" type="curve"/>
      <point x="262" y="-180" type="line"/>
      <point x="336" y="-109" type="line"/>
      <point x="411" y="-180" type="line"/>
      <point x="434" y="-180" type="line"/>
      <point x="434" y="-61" type="line"/>
      <point x="408" y="-61" type="line"/>
      <point x="408" y="-161" type="line"/>
      <point x="418" y="-157" type="line"/>
      <point x="336" y="-79" type="line"/>
      <point x="259" y="-152" type="line"/>
      <point x="234" y="-114"/>
      <point x="205" y="-75"/>
      <point x="149" y="-75" type="curve" smooth="yes"/>
      <point x="96" y="-75"/>
      <point x="66" y="-111"/>
      <point x="66" y="-166" type="curve" smooth="yes"/>
    </contour>
    <contour>
      <point x="379" y="452" type="line"/>
      <point x="438" y="465"/>
      <point x="482" y="498"/>
      <point x="482" y="551" type="curve"/>
      <point x="454" y="551" type="line"/>
      <point x="454" y="503"/>
      <point x="415" y="481"/>
      <point x="365" y="470" type="curve"/>
    </contour>
  </outline>
</glyph>
<glyph name="thoNangmontho-thai" format="2">
  <advance width="609"/>
  <unicode hex="0E11"/>
  <anchor x="517" y="0" name="bottom"/>
  <anchor x="507" y="506" name="top"/>
  <outline>
    <contour>
      <point x="103" y="0" type="line"/>
      <point x="129" y="0" type="line"/>
      <point x="129" y="222" type="line" smooth="yes"/>
      <point x="129" y="296"/>
      <point x="139" y="312"/>
      <point x="184" y="365" type="curve" smooth="yes"/>
      <point x="258" y="452"/>
      <point x="308" y="501"/>
      <point x="384" y="501" type="curve" smooth="yes"/>
      <point x="446" y="501"/>
      <point x="491" y="469"/>
      <point x="491" y="402" type="curve" smooth="yes"/>
      <point x="491" y="0" type="line"/>
      <point x="517" y="0" type="line"/>
      <point x="517" y="411" type="line" smooth="yes"/>
      <point x="517" y="481"/>
      <point x="466" y="525"/>
      <point x="385" y="525" type="curve" smooth="yes"/>
      <point x="309" y="525"/>
      <point x="265" y="488"/>
      <point x="226" y="448" type="curve"/>
      <point x="221" y="448" type="line"/>
      <point x="221" y="517" type="line"/>
      <point x="202" y="517" type="line"/>
      <point x="194" y="468" type="line"/>
      <point x="175" y="451"/>
      <point x="159" y="445"/>
      <point x="134" y="445" type="curve" smooth="yes"/>
      <point x="97" y="445"/>
      <point x="81" y="460"/>
      <point x="81" y="517" type="curve"/>
      <point x="56" y="517" type="line"/>
      <point x="56" y="498" type="line" smooth="yes"/>
      <point x="56" y="446"/>
      <point x="87" y="423"/>
      <point x="129" y="423" type="curve" smooth="yes"/>
      <point x="160" y="423"/>
      <point x="181" y="436"/>
      <point x="193" y="448" type="curve"/>
      <point x="196" y="447" type="line"/>
      <point x="196" y="416"/>
      <point x="183" y="400"/>
      <point x="147" y="359" type="curve" smooth="yes"/>
      <point x="122" y="331"/>
      <point x="103" y="304"/>
      <point x="103" y="234" type="curve" smooth="yes"/>
    </contour>
  </outline>
</glyph>
<glyph name="thoPhuthao-thai" format="2">
  <advance width="885"/>
  <unicode hex="0E12"/>
  <anchor x="802" y="0" name="bottom"/>
  <anchor x="822" y="506" name="top"/>
  <outline>
    <contour>
      <point x="265" y="-9" type="curve" smooth="yes"/>
      <point x="287" y="-9"/>
      <point x="306" y="-5"/>
      <point x="316" y="1" type="curve"/>
      <point x="312" y="23" type="line"/>
      <point x="299" y="18"/>
      <point x="284" y="15"/>
      <point x="269" y="15" type="curve" smooth="yes"/>
      <point x="137" y="15"/>
      <point x="100" y="93"/>
      <point x="100" y="267" type="curve" smooth="yes"/>
      <point x="100" y="441"/>
      <point x="137" y="500"/>
      <point x="201" y="500" type="curve" smooth="yes"/>
      <point x="249" y="500"/>
      <point x="272" y="479"/>
      <point x="280" y="433" type="curve"/>
      <point x="302" y="433" type="line"/>
      <point x="314" y="475"/>
      <point x="332" y="500"/>
      <point x="382" y="500" type="curve" smooth="yes"/>
      <point x="444" y="500"/>
      <point x="462" y="473"/>
      <point x="462" y="405" type="curve" smooth="yes"/>
      <point x="462" y="0" type="line"/>
      <point x="486" y="0" type="line"/>
      <point x="489" y="89" type="line"/>
      <point x="493" y="89" type="line"/>
      <point x="521" y="35"/>
      <point x="574" y="-9"/>
      <point x="666" y="-9" type="curve" smooth="yes"/>
      <point x="757" y="-9"/>
      <point x="822" y="41"/>
      <point x="822" y="144" type="curve" smooth="yes"/>
      <point x="822" y="517" type="line"/>
      <point x="796" y="517" type="line"/>
      <point x="796" y="148" type="line" smooth="yes"/>
      <point x="796" y="63"/>
      <point x="749" y="15"/>
      <point x="656" y="15" type="curve" smooth="yes"/>
      <point x="564" y="15"/>
      <point x="488" y="88"/>
      <point x="488" y="186" type="curve" smooth="yes"/>
      <point x="488" y="403" type="line" smooth="yes"/>
      <point x="488" y="484"/>
      <point x="462" y="525"/>
      <point x="387" y="525" type="curve" smooth="yes"/>
      <point x="336" y="525"/>
      <point x="307" y="498"/>
      <point x="294" y="465" type="curve"/>
      <point x="290" y="465" type="line"/>
      <point x="279" y="498"/>
      <point x="257" y="525"/>
      <point x="197" y="525" type="curve" smooth="yes"/>
      <point x="127" y="525"/>
      <point x="74" y="471"/>
      <point x="74" y="265" type="curve" smooth="yes"/>
      <point x="74" y="83"/>
      <point x="118" y="-9"/>
    </contour>
  </outline>
</glyph>
<glyph name="noNen-thai" format="2">
  <advance width="898"/>
  <unicode hex="0E13"/>
  <anchor x="794" y="0" name="bottom"/>
  <anchor x="794" y="506" name="top"/>
  <outline>
    <contour>
      <point x="192" y="-7" type="curve" smooth="yes"/>
      <point x="215" y="-7"/>
      <point x="233" y="-3"/>
      <point x="253" y="5" type="curve"/>
      <point x="247" y="27" type="line"/>
      <point x="232" y="22"/>
      <point x="210" y="17"/>
      <point x="191" y="17" type="curve" smooth="yes"/>
      <point x="146" y="17"/>
      <point x="116" y="39"/>
      <point x="116" y="84" type="curve" smooth="yes"/>
      <point x="116" y="201" type="line" smooth="yes"/>
      <point x="116" y="268"/>
      <point x="159" y="295"/>
      <point x="212" y="300" type="curve"/>
      <point x="218" y="330" type="line"/>
      <point x="104" y="378" type="line"/>
      <point x="104" y="452"/>
      <point x="171" y="500"/>
      <point x="269" y="500" type="curve" smooth="yes"/>
      <point x="366" y="500"/>
      <point x="434" y="457"/>
      <point x="434" y="347" type="curve" smooth="yes"/>
      <point x="434" y="144" type="line" smooth="yes"/>
      <point x="434" y="41"/>
      <point x="497" y="-9"/>
      <point x="595" y="-9" type="curve" smooth="yes"/>
      <point x="674" y="-9"/>
      <point x="733" y="31"/>
      <point x="763" y="89" type="curve"/>
      <point x="767" y="89" type="line"/>
      <point x="770" y="0" type="line"/>
      <point x="794" y="0" type="line"/>
      <point x="794" y="517" type="line"/>
      <point x="768" y="517" type="line"/>
      <point x="768" y="186" type="line" smooth="yes"/>
      <point x="768" y="88"/>
      <point x="691" y="15"/>
      <point x="601" y="15" type="curve" smooth="yes"/>
      <point x="506" y="15"/>
      <point x="460" y="63"/>
      <point x="460" y="148" type="curve" smooth="yes"/>
      <point x="460" y="353" type="line" smooth="yes"/>
      <point x="460" y="471"/>
      <point x="380" y="525"/>
      <point x="270" y="525" type="curve" smooth="yes"/>
      <point x="151" y="525"/>
      <point x="77" y="461"/>
      <point x="77" y="381" type="curve" smooth="yes"/>
      <point x="77" y="363" type="line"/>
      <point x="192" y="321" type="line"/>
      <point x="191" y="318" type="line"/>
      <point x="136" y="305"/>
      <point x="90" y="275"/>
      <point x="90" y="200" type="curve" smooth="yes"/>
      <point x="90" y="83" type="line" smooth="yes"/>
      <point x="90" y="19"/>
      <point x="133" y="-7"/>
    </contour>
  </outline>
</glyph>
<glyph name="doDek-thai" format="2">
  <advance width="606"/>
  <unicode hex="0E14"/>
  <anchor x="514" y="0" name="bottom"/>
  <anchor x="504" y="506" name="top"/>
  <outline>
    <contour>
      <point x="266" y="-9" type="curve" smooth="yes"/>
      <point x="288" y="-9"/>
      <point x="308" y="-7"/>
      <point x="323" y="-1" type="curve"/>
      <point x="317" y="22" type="line"/>
      <point x="307" y="18"/>
      <point x="287" y="15"/>
      <point x="272" y="15" type="curve" smooth="yes"/>
      <point x="133" y="15"/>
      <point x="100" y="115"/>
      <point x="100" y="254" type="curve" smooth="yes"/>
      <point x="100" y="449"/>
      <point x="182" y="500"/>
      <point x="306" y="500" type="curve" smooth="yes"/>
      <point x="431" y="500"/>
      <point x="488" y="445"/>
      <point x="488" y="357" type="curve" smooth="yes"/>
      <point x="488" y="0" type="line"/>
      <point x="514" y="0" type="line"/>
      <point x="514" y="360" type="line" smooth="yes"/>
      <point x="514" y="470"/>
      <point x="434" y="525"/>
      <point x="304" y="525" type="curve" smooth="yes"/>
      <point x="175" y="525"/>
      <point x="72" y="477"/>
      <point x="72" y="255" type="curve" smooth="yes"/>
      <point x="72" y="86"/>
      <point x="123" y="-9"/>
    </contour>
  </outline>
</glyph>
<glyph name="toTao-thai" format="2">
  <advance width="622"/>
  <unicode hex="0E15"/>
  <note>
uni0E15
</note>
  <anchor x="530" y="0" name="bottom"/>
  <anchor x="520" y="506" name="top"/>
  <outline>
    <contour>
      <point x="272" y="-9" type="curve" smooth="yes"/>
      <point x="295" y="-9"/>
      <point x="322" y="-5"/>
      <point x="335" y="1" type="curve"/>
      <point x="331" y="23" type="line"/>
      <point x="316" y="19"/>
      <point x="296" y="15"/>
      <point x="276" y="15" type="curve" smooth="yes"/>
      <point x="139" y="15"/>
      <point x="100" y="98"/>
      <point x="100" y="267" type="curve" smooth="yes"/>
      <point x="100" y="432"/>
      <point x="141" y="500"/>
      <point x="215" y="500" type="curve" smooth="yes"/>
      <point x="263" y="500"/>
      <point x="294" y="479"/>
      <point x="302" y="433" type="curve"/>
      <point x="324" y="433" type="line"/>
      <point x="335" y="475"/>
      <point x="357" y="500"/>
      <point x="411" y="500" type="curve" smooth="yes"/>
      <point x="473" y="500"/>
      <point x="504" y="473"/>
      <point x="504" y="405" type="curve" smooth="yes"/>
      <point x="504" y="0" type="line"/>
      <point x="530" y="0" type="line"/>
      <point x="530" y="403" type="line" smooth="yes"/>
      <point x="530" y="484"/>
      <point x="492" y="525"/>
      <point x="415" y="525" type="curve" smooth="yes"/>
      <point x="360" y="525"/>
      <point x="329" y="498"/>
      <point x="316" y="465" type="curve"/>
      <point x="312" y="465" type="line"/>
      <point x="301" y="498"/>
      <point x="273" y="525"/>
      <point x="213" y="525" type="curve" smooth="yes"/>
      <point x="131" y="525"/>
      <point x="74" y="462"/>
      <point x="74" y="265" type="curve" smooth="yes"/>
      <point x="74" y="87"/>
      <point x="120" y="-9"/>
    </contour>
  </outline>
</glyph>
<glyph name="thoThung-thai" format="2">
  <advance width="576"/>
  <unicode hex="0E16"/>
  <anchor x="484" y="0" name="bottom"/>
  <anchor x="474" y="506" name="top"/>
  <outline>
    <contour>
      <point x="192" y="-7" type="curve" smooth="yes"/>
      <point x="215" y="-7"/>
      <point x="233" y="-3"/>
      <point x="253" y="5" type="curve"/>
      <point x="247" y="27" type="line"/>
      <point x="232" y="22"/>
      <point x="210" y="17"/>
      <point x="191" y="17" type="curve" smooth="yes"/>
      <point x="146" y="17"/>
      <point x="116" y="39"/>
      <point x="116" y="84" type="curve" smooth="yes"/>
      <point x="116" y="201" type="line" smooth="yes"/>
      <point x="116" y="269"/>
      <point x="159" y="295"/>
      <point x="212" y="300" type="curve"/>
      <point x="218" y="330" type="line"/>
      <point x="104" y="378" type="line"/>
      <point x="104" y="446"/>
      <point x="171" y="500"/>
      <point x="282" y="500" type="curve" smooth="yes"/>
      <point x="388" y="500"/>
      <point x="458" y="450"/>
      <point x="458" y="347" type="curve" smooth="yes"/>
      <point x="458" y="0" type="line"/>
      <point x="484" y="0" type="line"/>
      <point x="484" y="353" type="line" smooth="yes"/>
      <point x="484" y="465"/>
      <point x="402" y="525"/>
      <point x="282" y="525" type="curve" smooth="yes"/>
      <point x="151" y="525"/>
      <point x="77" y="454"/>
      <point x="77" y="381" type="curve" smooth="yes"/>
      <point x="77" y="363" type="line"/>
      <point x="192" y="321" type="line"/>
      <point x="191" y="318" type="line"/>
      <point x="136" y="305"/>
      <point x="90" y="275"/>
      <point x="90" y="200" type="curve" smooth="yes"/>
      <point x="90" y="83" type="line" smooth="yes"/>
      <point x="90" y="19"/>
      <point x="133" y="-7"/>
    </contour>
  </outline>
</glyph>
<glyph name="thoThahan-thai" format="2">
  <advance width="606"/>
  <unicode hex="0E17"/>
  <anchor x="514" y="0" name="bottom"/>
  <anchor x="504" y="506" name="top"/>
  <outline>
    <contour>
      <point x="104" y="0" type="line"/>
      <point x="130" y="0" type="line"/>
      <point x="130" y="322" type="line" smooth="yes"/>
      <point x="130" y="427"/>
      <point x="207" y="500"/>
      <point x="323" y="500" type="curve" smooth="yes"/>
      <point x="426" y="500"/>
      <point x="488" y="450"/>
      <point x="488" y="358" type="curve" smooth="yes"/>
      <point x="488" y="0" type="line"/>
      <point x="514" y="0" type="line"/>
      <point x="514" y="361" type="line" smooth="yes"/>
      <point x="514" y="472"/>
      <point x="430" y="525"/>
      <point x="329" y="525" type="curve" smooth="yes"/>
      <point x="238" y="525"/>
      <point x="168" y="491"/>
      <point x="135" y="423" type="curve"/>
      <point x="131" y="423" type="line"/>
      <point x="125" y="517" type="line"/>
      <point x="104" y="517" type="line"/>
    </contour>
  </outline>
</glyph>
<glyph name="thoThong-thai" format="2">
  <advance width="522"/>
  <unicode hex="0E18"/>
  <anchor x="379" y="0" name="bottom"/>
  <anchor x="449" y="506" name="top"/>
  <outline>
    <contour>
      <point x="263" y="-9" type="curve" smooth="yes"/>
      <point x="380" y="-9"/>
      <point x="462" y="30"/>
      <point x="462" y="141" type="curve" smooth="yes"/>
      <point x="462" y="248"/>
      <point x="388" y="272"/>
      <point x="267" y="311" type="curve" smooth="yes"/>
      <point x="162" y="345"/>
      <point x="101" y="364"/>
      <point x="101" y="421" type="curve" smooth="yes"/>
      <point x="101" y="483"/>
      <point x="174" y="501"/>
      <point x="250" y="501" type="curve" smooth="yes"/>
      <point x="327" y="501"/>
      <point x="401" y="482"/>
      <point x="436" y="465" type="curve"/>
      <point x="436" y="493" type="line"/>
      <point x="405" y="506"/>
      <point x="341" y="525"/>
      <point x="254" y="525" type="curve" smooth="yes"/>
      <point x="134" y="525"/>
      <point x="75" y="489"/>
      <point x="75" y="419" type="curve" smooth="yes"/>
      <point x="75" y="357"/>
      <point x="121" y="330"/>
      <point x="239" y="293" type="curve" smooth="yes"/>
      <point x="349" y="258"/>
      <point x="436" y="243"/>
      <point x="436" y="141" type="curve" smooth="yes"/>
      <point x="436" y="45"/>
      <point x="361" y="15"/>
      <point x="267" y="15" type="curve" smooth="yes"/>
      <point x="210" y="15"/>
      <point x="142" y="26"/>
      <point x="113" y="39" type="curve"/>
      <point x="113" y="241" type="line"/>
      <point x="87" y="241" type="line"/>
      <point x="87" y="19" type="line"/>
      <point x="129" y="3"/>
      <point x="197" y="-9"/>
    </contour>
  </outline>
</glyph>
<glyph name="noNu-thai" format="2">
  <advance width="606"/>
  <unicode hex="0E19"/>
  <note>
uni0E19
</note>
  <anchor x="502" y="0" name="bottom"/>
  <anchor x="502" y="506" name="top"/>
  <outline>
    <contour>
      <point x="276" y="-9" type="curve" smooth="yes"/>
      <point x="376" y="-9"/>
      <point x="435" y="27"/>
      <point x="471" y="93" type="curve"/>
      <point x="475" y="93" type="line"/>
      <point x="478" y="0" type="line"/>
      <point x="502" y="0" type="line"/>
      <point x="502" y="517" type="line"/>
      <point x="476" y="517" type="line"/>
      <point x="476" y="195" type="line" smooth="yes"/>
      <point x="476" y="86"/>
      <point x="400" y="15"/>
      <point x="282" y="15" type="curve" smooth="yes"/>
      <point x="179" y="15"/>
      <point x="118" y="65"/>
      <point x="118" y="159" type="curve" smooth="yes"/>
      <point x="118" y="517" type="line"/>
      <point x="92" y="517" type="line"/>
      <point x="92" y="156" type="line" smooth="yes"/>
      <point x="92" y="43"/>
      <point x="175" y="-9"/>
    </contour>
  </outline>
</glyph>
<glyph name="boBaimai-thai" format="2">
  <advance width="592"/>
  <unicode hex="0E1A"/>
  <note>
uni0E1A
</note>
  <anchor x="480" y="0" name="bottom"/>
  <anchor x="500" y="506" name="top"/>
  <outline>
    <contour>
      <point x="296" y="-9" type="curve" smooth="yes"/>
      <point x="436" y="-9"/>
      <point x="500" y="63"/>
      <point x="500" y="165" type="curve" smooth="yes"/>
      <point x="500" y="517" type="line"/>
      <point x="474" y="517" type="line"/>
      <point x="474" y="167" type="line" smooth="yes"/>
      <point x="474" y="72"/>
      <point x="414" y="15"/>
      <point x="296" y="15" type="curve" smooth="yes"/>
      <point x="178" y="15"/>
      <point x="118" y="72"/>
      <point x="118" y="167" type="curve" smooth="yes"/>
      <point x="118" y="517" type="line"/>
      <point x="92" y="517" type="line"/>
      <point x="92" y="165" type="line" smooth="yes"/>
      <point x="92" y="63"/>
      <point x="156" y="-9"/>
    </contour>
  </outline>
</glyph>
<glyph name="phoPhung-thai" format="2">
  <advance width="641"/>
  <unicode hex="0E1C"/>
  <anchor x="537" y="0" name="bottom"/>
  <anchor x="537" y="506" name="top"/>
  <outline>
    <contour>
      <point x="97" y="0" type="line"/>
      <point x="118" y="0" type="line"/>
      <point x="315" y="314" type="line"/>
      <point x="319" y="314" type="line"/>
      <point x="516" y="0" type="line"/>
      <point x="537" y="0" type="line"/>
      <point x="537" y="517" type="line"/>
      <point x="511" y="517" type="line"/>
      <point x="511" y="183" type="line" smooth="yes"/>
      <point x="511" y="144"/>
      <point x="512" y="92"/>
      <point x="516" y="43" type="curve"/>
      <point x="512" y="43" type="line"/>
      <point x="493" y="81"/>
      <point x="471" y="118"/>
      <point x="438" y="170" type="curve" smooth="yes"/>
      <point x="326" y="346" type="line"/>
      <point x="308" y="346" type="line"/>
      <point x="196" y="170" type="line" smooth="yes"/>
      <point x="174" y="135"/>
      <point x="145" y="88"/>
      <point x="122" y="43" type="curve"/>
      <point x="118" y="43" type="line"/>
      <point x="122" y="92"/>
      <point x="123" y="144"/>
      <point x="123" y="183" type="curve" smooth="yes"/>
      <point x="123" y="435" type="line" smooth="yes"/>
      <point x="123" y="488"/>
      <point x="153" y="500"/>
      <point x="192" y="500" type="curve" smooth="yes"/>
      <point x="211" y="500"/>
      <point x="231" y="496"/>
      <point x="244" y="493" type="curve"/>
      <point x="247" y="514" type="line"/>
      <point x="236" y="519"/>
      <point x="211" y="525"/>
      <point x="188" y="525" type="curve" smooth="yes"/>
      <point x="146" y="525"/>
      <point x="97" y="505"/>
      <point x="97" y="438" type="curve" smooth="yes"/>
    </contour>
  </outline>
</glyph>
<glyph name="phoPhan-thai" format="2">
  <advance width="682"/>
  <unicode hex="0E1E"/>
  <note>
uni0E1E
</note>
  <anchor x="532" y="0" name="bottom"/>
  <anchor x="581" y="506" name="top"/>
  <outline>
    <contour>
      <point x="150" y="0" type="line"/>
      <point x="182" y="0" type="line"/>
      <point x="305" y="353" type="line" smooth="yes"/>
      <point x="316" y="385"/>
      <point x="329" y="425"/>
      <point x="338" y="456" type="curve"/>
      <point x="343" y="456" type="line"/>
      <point x="352" y="425"/>
      <point x="365" y="385"/>
      <point x="376" y="353" type="curve" smooth="yes"/>
      <point x="500" y="0" type="line"/>
      <point x="532" y="0" type="line"/>
      <point x="629" y="517" type="line"/>
      <point x="602" y="517" type="line"/>
      <point x="539" y="189" type="line" smooth="yes"/>
      <point x="534" y="161"/>
      <point x="523" y="99"/>
      <point x="515" y="41" type="curve"/>
      <point x="511" y="41" type="line"/>
      <point x="492" y="100"/>
      <point x="464" y="177"/>
      <point x="453" y="211" type="curve" smooth="yes"/>
      <point x="348" y="517" type="line"/>
      <point x="333" y="517" type="line"/>
      <point x="228" y="211" type="line" smooth="yes"/>
      <point x="217" y="177"/>
      <point x="190" y="100"/>
      <point x="171" y="41" type="curve"/>
      <point x="167" y="41" type="line"/>
      <point x="158" y="99"/>
      <point x="147" y="161"/>
      <point x="142" y="189" type="curve" smooth="yes"/>
      <point x="80" y="517" type="line"/>
      <point x="53" y="517" type="line"/>
    </contour>
  </outline>
</glyph>
<glyph name="foFan-thai" format="2">
  <advance width="680"/>
  <unicode hex="0E1F"/>
  <anchor x="535" y="0" name="bottom"/>
  <anchor x="520" y="506" name="top"/>
  <outline>
    <contour>
      <point x="154" y="0" type="line"/>
      <point x="186" y="0" type="line"/>
      <point x="309" y="353" type="line" smooth="yes"/>
      <point x="320" y="385"/>
      <point x="333" y="425"/>
      <point x="342" y="456" type="curve"/>
      <point x="347" y="456" type="line"/>
      <point x="356" y="425"/>
      <point x="369" y="385"/>
      <point x="380" y="353" type="curve" smooth="yes"/>
      <point x="503" y="0" type="line"/>
      <point x="535" y="0" type="line"/>
      <point x="647" y="703" type="line"/>
      <point x="621" y="703" type="line"/>
      <point x="541" y="189" type="line" smooth="yes"/>
      <point x="536" y="158"/>
      <point x="525" y="99"/>
      <point x="518" y="41" type="curve"/>
      <point x="514" y="41" type="line"/>
      <point x="495" y="99"/>
      <point x="469" y="176"/>
      <point x="457" y="211" type="curve" smooth="yes"/>
      <point x="352" y="517" type="line"/>
      <point x="337" y="517" type="line"/>
      <point x="232" y="211" type="line" smooth="yes"/>
      <point x="220" y="176"/>
      <point x="194" y="99"/>
      <point x="175" y="41" type="curve"/>
      <point x="171" y="41" type="line"/>
      <point x="162" y="98"/>
      <point x="152" y="160"/>
      <point x="146" y="189" type="curve" smooth="yes"/>
      <point x="80" y="517" type="line"/>
      <point x="53" y="517" type="line"/>
    </contour>
  </outline>
</glyph>
<glyph name="phoSamphao-thai" format="2">
  <advance width="577"/>
  <unicode hex="0E20"/>
  <anchor x="485" y="0" name="bottom"/>
  <anchor x="475" y="506" name="top"/>
  <outline>
    <contour>
      <point x="71" y="-7" type="curve" smooth="yes"/>
      <point x="102" y="-7"/>
      <point x="124" y="9"/>
      <point x="124" y="56" type="curve" smooth="yes"/>
      <point x="124" y="201" type="line" smooth="yes"/>
      <point x="124" y="268"/>
      <point x="160" y="295"/>
      <point x="213" y="300" type="curve"/>
      <point x="219" y="330" type="line"/>
      <point x="105" y="378" type="line"/>
      <point x="105" y="446"/>
      <point x="172" y="500"/>
      <point x="283" y="500" type="curve" smooth="yes"/>
      <point x="389" y="500"/>
      <point x="459" y="450"/>
      <point x="459" y="347" type="curve" smooth="yes"/>
      <point x="459" y="0" type="line"/>
      <point x="485" y="0" type="line"/>
      <point x="485" y="353" type="line" smooth="yes"/>
      <point x="485" y="465"/>
      <point x="403" y="525"/>
      <point x="283" y="525" type="curve" smooth="yes"/>
      <point x="152" y="525"/>
      <point x="78" y="454"/>
      <point x="78" y="381" type="curve" smooth="yes"/>
      <point x="78" y="363" type="line"/>
      <point x="193" y="321" type="line"/>
      <point x="192" y="318" type="line"/>
      <point x="137" y="305"/>
      <point x="98" y="275"/>
      <point x="98" y="200" type="curve" smooth="yes"/>
      <point x="98" y="61" type="line" smooth="yes"/>
      <point x="98" y="31"/>
      <point x="92" y="18"/>
      <point x="67" y="18" type="curve" smooth="yes"/>
      <point x="56" y="18"/>
      <point x="46" y="21"/>
      <point x="37" y="25" type="curve"/>
      <point x="30" y="2" type="line"/>
      <point x="43" y="-4"/>
      <point x="58" y="-7"/>
    </contour>
  </outline>
</glyph>
<glyph name="moMa-thai" format="2">
  <advance width="606"/>
  <unicode hex="0E21"/>
  <note>
uni0E21
</note>
  <anchor x="494" y="0" name="bottom"/>
  <anchor x="514" y="506" name="top"/>
  <outline>
    <contour>
      <point x="332" y="-9" type="curve" smooth="yes"/>
      <point x="433" y="-9"/>
      <point x="514" y="43"/>
      <point x="514" y="156" type="curve" smooth="yes"/>
      <point x="514" y="517" type="line"/>
      <point x="488" y="517" type="line"/>
      <point x="488" y="159" type="line" smooth="yes"/>
      <point x="488" y="65"/>
      <point x="429" y="15"/>
      <point x="326" y="15" type="curve" smooth="yes"/>
      <point x="212" y="15"/>
      <point x="130" y="93"/>
      <point x="130" y="195" type="curve" smooth="yes"/>
      <point x="130" y="517" type="line"/>
      <point x="104" y="517" type="line"/>
      <point x="104" y="0" type="line"/>
      <point x="128" y="0" type="line"/>
      <point x="131" y="99" type="line"/>
      <point x="135" y="99" type="line"/>
      <point x="171" y="33"/>
      <point x="232" y="-9"/>
    </contour>
  </outline>
</glyph>
<glyph name="yoYak-thai" format="2">
  <advance width="583"/>
  <unicode hex="0E22"/>
  <note>
uni0E22
</note>
  <anchor x="471" y="0" name="bottom"/>
  <anchor x="491" y="506" name="top"/>
  <outline>
    <contour>
      <point x="288" y="-9" type="curve" smooth="yes"/>
      <point x="414" y="-9"/>
      <point x="491" y="45"/>
      <point x="491" y="168" type="curve" smooth="yes"/>
      <point x="491" y="517" type="line"/>
      <point x="465" y="517" type="line"/>
      <point x="465" y="163" type="line" smooth="yes"/>
      <point x="465" y="53"/>
      <point x="388" y="16"/>
      <point x="288" y="16" type="curve" smooth="yes"/>
      <point x="184" y="16"/>
      <point x="110" y="58"/>
      <point x="110" y="151" type="curve" smooth="yes"/>
      <point x="110" y="228"/>
      <point x="161" y="271"/>
      <point x="243" y="271" type="curve" smooth="yes"/>
      <point x="282" y="271" type="line"/>
      <point x="282" y="293" type="line"/>
      <point x="243" y="293" type="line" smooth="yes"/>
      <point x="183" y="293"/>
      <point x="107" y="316"/>
      <point x="107" y="401" type="curve" smooth="yes"/>
      <point x="107" y="470"/>
      <point x="159" y="499"/>
      <point x="225" y="499" type="curve" smooth="yes"/>
      <point x="250" y="499"/>
      <point x="280" y="494"/>
      <point x="294" y="490" type="curve"/>
      <point x="299" y="512" type="line"/>
      <point x="279" y="519"/>
      <point x="250" y="524"/>
      <point x="218" y="524" type="curve" smooth="yes"/>
      <point x="138" y="524"/>
      <point x="80" y="478"/>
      <point x="80" y="405" type="curve" smooth="yes"/>
      <point x="80" y="318"/>
      <point x="135" y="297"/>
      <point x="171" y="283" type="curve"/>
      <point x="171" y="279" type="line"/>
      <point x="132" y="263"/>
      <point x="83" y="237"/>
      <point x="83" y="147" type="curve" smooth="yes"/>
      <point x="83" y="56"/>
      <point x="150" y="-9"/>
    </contour>
  </outline>
</glyph>
<glyph name="roRua-thai" format="2">
  <advance width="471"/>
  <unicode hex="0E23"/>
  <note>
uni0E23
</note>
  <anchor x="368" y="0" name="bottom"/>
  <anchor x="419" y="506" name="top"/>
  <outline>
    <contour>
      <point x="234" y="-9" type="curve" smooth="yes"/>
      <point x="357" y="-9"/>
      <point x="421" y="39"/>
      <point x="421" y="125" type="curve" smooth="yes"/>
      <point x="421" y="216"/>
      <point x="351" y="245"/>
      <point x="261" y="277" type="curve" smooth="yes"/>
      <point x="168" y="310"/>
      <point x="81" y="335"/>
      <point x="81" y="408" type="curve" smooth="yes"/>
      <point x="81" y="466"/>
      <point x="136" y="501"/>
      <point x="228" y="501" type="curve" smooth="yes"/>
      <point x="291" y="501"/>
      <point x="359" y="485"/>
      <point x="392" y="469" type="curve"/>
      <point x="392" y="495" type="line"/>
      <point x="362" y="510"/>
      <point x="295" y="525"/>
      <point x="229" y="525" type="curve" smooth="yes"/>
      <point x="116" y="525"/>
      <point x="55" y="479"/>
      <point x="55" y="405" type="curve" smooth="yes"/>
      <point x="55" y="325"/>
      <point x="127" y="296"/>
      <point x="239" y="257" type="curve" smooth="yes"/>
      <point x="320" y="229"/>
      <point x="395" y="203"/>
      <point x="395" y="124" type="curve" smooth="yes"/>
      <point x="395" y="52"/>
      <point x="332" y="14"/>
      <point x="238" y="14" type="curve" smooth="yes"/>
      <point x="172" y="14"/>
      <point x="105" y="32"/>
      <point x="61" y="50" type="curve"/>
      <point x="52" y="26" type="line"/>
      <point x="97" y="8"/>
      <point x="161" y="-9"/>
    </contour>
  </outline>
</glyph>
<glyph name="ru-thai" format="2">
  <advance width="576"/>
  <unicode hex="0E24"/>
  <anchor x="484" y="-165" name="bottom"/>
  <anchor x="474" y="506" name="top"/>
  <outline>
    <contour>
      <point x="458" y="-180" type="line"/>
      <point x="484" y="-180" type="line"/>
      <point x="484" y="94" type="line"/>
      <point x="458" y="94" type="line"/>
    </contour>
    <component base="thoThung-thai"/>
  </outline>
</glyph>
<glyph name="loLing-thai" format="2">
  <advance width="560"/>
  <unicode hex="0E25"/>
  <anchor x="468" y="0" name="bottom"/>
  <anchor x="468" y="506" name="top"/>
  <outline>
    <contour>
      <point x="442" y="0" type="line"/>
      <point x="468" y="0" type="line"/>
      <point x="468" y="369" type="line" smooth="yes"/>
      <point x="468" y="468"/>
      <point x="403" y="525"/>
      <point x="284" y="525" type="curve" smooth="yes"/>
      <point x="200" y="525"/>
      <point x="138" y="504"/>
      <point x="101" y="488" type="curve"/>
      <point x="101" y="458" type="line"/>
      <point x="152" y="484"/>
      <point x="214" y="500"/>
      <point x="279" y="500" type="curve" smooth="yes"/>
      <point x="391" y="500"/>
      <point x="442" y="451"/>
      <point x="442" y="366" type="curve" smooth="yes"/>
    </contour>
    <contour>
      <point x="228" y="-9" type="curve" smooth="yes"/>
      <point x="249" y="-9"/>
      <point x="279" y="-5"/>
      <point x="291" y="0" type="curve"/>
      <point x="286" y="23" type="line"/>
      <point x="269" y="18"/>
      <point x="249" y="15"/>
      <point x="224" y="15" type="curve" smooth="yes"/>
      <point x="141" y="15"/>
      <point x="86" y="55"/>
      <point x="86" y="131" type="curve" smooth="yes"/>
      <point x="86" y="226"/>
      <point x="158" y="265"/>
      <point x="312" y="273" type="curve" smooth="yes"/>
      <point x="448" y="280" type="line"/>
      <point x="448" y="305" type="line"/>
      <point x="303" y="298" type="line" smooth="yes"/>
      <point x="133" y="290"/>
      <point x="58" y="236"/>
      <point x="58" y="130" type="curve" smooth="yes"/>
      <point x="58" y="51"/>
      <point x="106" y="-9"/>
    </contour>
  </outline>
</glyph>
<glyph name="lu-thai" format="2">
  <advance width="577"/>
  <unicode hex="0E26"/>
  <anchor x="485" y="-165" name="bottom"/>
  <anchor x="485" y="506" name="top"/>
  <outline>
    <contour>
      <point x="459" y="-180" type="line"/>
      <point x="485" y="-180" type="line"/>
      <point x="485" y="94" type="line"/>
      <point x="459" y="94" type="line"/>
    </contour>
    <component base="phoSamphao-thai"/>
  </outline>
</glyph>
<glyph name="woWaen-thai" format="2">
  <advance width="484"/>
  <unicode hex="0E27"/>
  <anchor x="316" y="0" name="bottom"/>
  <anchor x="405" y="504" name="top"/>
  <outline>
    <contour>
      <point x="196" y="-9" type="curve" smooth="yes"/>
      <point x="327" y="-9"/>
      <point x="410" y="78"/>
      <point x="410" y="260" type="curve" smooth="yes"/>
      <point x="410" y="437"/>
      <point x="339" y="525"/>
      <point x="172" y="525" type="curve" smooth="yes"/>
      <point x="128" y="525"/>
      <point x="81" y="517"/>
      <point x="43" y="499" type="curve"/>
      <point x="43" y="474" type="line"/>
      <point x="77" y="491"/>
      <point x="124" y="500"/>
      <point x="164" y="500" type="curve" smooth="yes"/>
      <point x="316" y="500"/>
      <point x="382" y="427"/>
      <point x="382" y="260" type="curve" smooth="yes"/>
      <point x="382" y="90"/>
      <point x="304" y="15"/>
      <point x="189" y="15" type="curve" smooth="yes"/>
      <point x="141" y="15"/>
      <point x="97" y="29"/>
      <point x="63" y="49" type="curve"/>
      <point x="50" y="25" type="line"/>
      <point x="96" y="0"/>
      <point x="143" y="-9"/>
    </contour>
  </outline>
</glyph>
<glyph name="soSala-thai" format="2">
  <advance width="617"/>
  <unicode hex="0E28"/>
  <anchor x="510" y="0" name="bottom"/>
  <anchor x="492" y="506" name="top"/>
  <outline>
    <contour>
      <point x="92" y="0" type="line"/>
      <point x="118" y="0" type="line"/>
      <point x="118" y="128" type="line" smooth="yes"/>
      <point x="118" y="208"/>
      <point x="184" y="255"/>
      <point x="280" y="255" type="curve" smooth="yes"/>
      <point x="331" y="255" type="line"/>
      <point x="331" y="279" type="line"/>
      <point x="277" y="279" type="line" smooth="yes"/>
      <point x="195" y="279"/>
      <point x="148" y="250"/>
      <point x="121" y="206" type="curve"/>
      <point x="118" y="207" type="line"/>
      <point x="118" y="346" type="line" smooth="yes"/>
      <point x="118" y="447"/>
      <point x="188" y="500"/>
      <point x="301" y="500" type="curve" smooth="yes"/>
      <point x="414" y="500"/>
      <point x="484" y="447"/>
      <point x="484" y="346" type="curve" smooth="yes"/>
      <point x="484" y="0" type="line"/>
      <point x="510" y="0" type="line"/>
      <point x="510" y="348" type="line" smooth="yes"/>
      <point x="510" y="399"/>
      <point x="494" y="439"/>
      <point x="463" y="467" type="curve"/>
      <point x="429" y="505"/>
      <point x="373" y="525"/>
      <point x="301" y="525" type="curve" smooth="yes"/>
      <point x="172" y="525"/>
      <point x="92" y="463"/>
      <point x="92" y="348" type="curve" smooth="yes"/>
    </contour>
    <contour>
      <point x="448" y="452" type="line"/>
      <point x="507" y="465"/>
      <point x="551" y="498"/>
      <point x="551" y="551" type="curve"/>
      <point x="523" y="551" type="line"/>
      <point x="523" y="503"/>
      <point x="484" y="481"/>
      <point x="434" y="470" type="curve"/>
    </contour>
  </outline>
</glyph>
<glyph name="soRusi-thai" format="2">
  <advance width="628"/>
  <unicode hex="0E29"/>
  <anchor x="494" y="0" name="bottom"/>
  <anchor x="514" y="506" name="top"/>
  <outline>
    <contour>
      <point x="303" y="-9" type="curve" smooth="yes"/>
      <point x="450" y="-9"/>
      <point x="514" y="71"/>
      <point x="514" y="169" type="curve" smooth="yes"/>
      <point x="514" y="517" type="line"/>
      <point x="488" y="517" type="line"/>
      <point x="488" y="172" type="line" smooth="yes"/>
      <point x="488" y="72"/>
      <point x="428" y="15"/>
      <point x="303" y="15" type="curve" smooth="yes"/>
      <point x="178" y="15"/>
      <point x="118" y="72"/>
      <point x="118" y="172" type="curve" smooth="yes"/>
      <point x="118" y="517" type="line"/>
      <point x="92" y="517" type="line"/>
      <point x="92" y="169" type="line" smooth="yes"/>
      <point x="92" y="71"/>
      <point x="156" y="-9"/>
    </contour>
    <contour>
      <point x="354" y="244" type="curve" smooth="yes"/>
      <point x="578" y="244" type="line"/>
      <point x="578" y="266" type="line"/>
      <point x="357" y="266" type="line" smooth="yes"/>
      <point x="322" y="266"/>
      <point x="310" y="276"/>
      <point x="310" y="299" type="curve" smooth="yes"/>
      <point x="310" y="307"/>
      <point x="313" y="317"/>
      <point x="316" y="323" type="curve"/>
      <point x="293" y="330" type="line"/>
      <point x="289" y="322"/>
      <point x="284" y="309"/>
      <point x="284" y="294" type="curve" smooth="yes"/>
      <point x="284" y="260"/>
      <point x="308" y="244"/>
    </contour>
  </outline>
</glyph>
<glyph name="soSua-thai" format="2">
  <advance width="560"/>
  <unicode hex="0E2A"/>
  <note>
uni0E2A
</note>
  <anchor x="468" y="0" name="bottom"/>
  <anchor x="468" y="506" name="top"/>
  <outline>
    <contour>
      <point x="442" y="0" type="line"/>
      <point x="468" y="0" type="line"/>
      <point x="468" y="369" type="line" smooth="yes"/>
      <point x="468" y="411"/>
      <point x="456" y="447"/>
      <point x="431" y="471" type="curve"/>
      <point x="401" y="505"/>
      <point x="355" y="525"/>
      <point x="279" y="525" type="curve" smooth="yes"/>
      <point x="202" y="525"/>
      <point x="138" y="504"/>
      <point x="101" y="488" type="curve"/>
      <point x="101" y="458" type="line"/>
      <point x="152" y="484"/>
      <point x="214" y="500"/>
      <point x="279" y="500" type="curve" smooth="yes"/>
      <point x="391" y="500"/>
      <point x="442" y="451"/>
      <point x="442" y="366" type="curve" smooth="yes"/>
    </contour>
    <contour>
      <point x="221" y="-9" type="curve" smooth="yes"/>
      <point x="252" y="-9"/>
      <point x="279" y="-5"/>
      <point x="292" y="0" type="curve"/>
      <point x="286" y="23" type="line"/>
      <point x="269" y="18"/>
      <point x="248" y="15"/>
      <point x="225" y="15" type="curve" smooth="yes"/>
      <point x="141" y="15"/>
      <point x="86" y="54"/>
      <point x="86" y="133" type="curve" smooth="yes"/>
      <point x="86" y="227"/>
      <point x="163" y="265"/>
      <point x="312" y="273" type="curve" smooth="yes"/>
      <point x="448" y="280" type="line"/>
      <point x="448" y="305" type="line"/>
      <point x="303" y="298" type="line" smooth="yes"/>
      <point x="141" y="290"/>
      <point x="58" y="239"/>
      <point x="58" y="133" type="curve" smooth="yes"/>
      <point x="58" y="51"/>
      <point x="108" y="-9"/>
    </contour>
    <contour>
      <point x="426" y="456" type="line"/>
      <point x="475" y="472"/>
      <point x="510" y="504"/>
      <point x="510" y="551" type="curve"/>
      <point x="482" y="551" type="line"/>
      <point x="482" y="508"/>
      <point x="451" y="485"/>
      <point x="409" y="474" type="curve"/>
    </contour>
  </outline>
</glyph>
<glyph name="hoHip-thai" format="2">
  <advance width="575"/>
  <unicode hex="0E2B"/>
  <note>
uni0E2B
</note>
  <anchor x="493" y="0" name="bottom"/>
  <anchor x="490" y="506" name="top"/>
  <outline>
    <contour>
      <point x="104" y="0" type="line"/>
      <point x="130" y="0" type="line"/>
      <point x="130" y="192" type="line"/>
      <point x="487" y="514" type="line"/>
      <point x="487" y="517" type="line"/>
      <point x="452" y="517" type="line"/>
      <point x="133" y="227" type="line"/>
      <point x="130" y="227" type="line"/>
      <point x="130" y="517" type="line"/>
      <point x="104" y="517" type="line"/>
    </contour>
    <contour>
      <point x="467" y="0" type="line"/>
      <point x="493" y="0" type="line"/>
      <point x="493" y="174" type="line" smooth="yes"/>
      <point x="493" y="291"/>
      <point x="441" y="352"/>
      <point x="301" y="355" type="curve"/>
      <point x="278" y="333" type="line"/>
      <point x="418" y="337"/>
      <point x="467" y="280"/>
      <point x="467" y="174" type="curve" smooth="yes"/>
    </contour>
  </outline>
</glyph>
<glyph name="loChula-thai" format="2">
  <advance width="644"/>
  <unicode hex="0E2C"/>
  <anchor x="514" y="0" name="bottom"/>
  <outline>
    <contour>
      <point x="136" y="0" type="line"/>
      <point x="166" y="0" type="line"/>
      <point x="292" y="300" type="line" smooth="yes"/>
      <point x="302" y="324"/>
      <point x="314" y="354"/>
      <point x="323" y="382" type="curve"/>
      <point x="327" y="382" type="line"/>
      <point x="336" y="354"/>
      <point x="350" y="324"/>
      <point x="360" y="300" type="curve" smooth="yes"/>
      <point x="484" y="0" type="line"/>
      <point x="514" y="0" type="line"/>
      <point x="576" y="394" type="line" smooth="yes"/>
      <point x="586" y="458"/>
      <point x="571" y="506"/>
      <point x="522" y="529" type="curve"/>
      <point x="522" y="532" type="line"/>
      <point x="592" y="551"/>
      <point x="624" y="586"/>
      <point x="624" y="664" type="curve" smooth="yes"/>
      <point x="624" y="674" type="line"/>
      <point x="597" y="674" type="line"/>
      <point x="597" y="664" type="line" smooth="yes"/>
      <point x="597" y="589"/>
      <point x="558" y="550"/>
      <point x="469" y="550" type="curve" smooth="yes"/>
      <point x="382" y="550" type="line"/>
      <point x="382" y="528" type="line"/>
      <point x="429" y="528" type="line" smooth="yes"/>
      <point x="530" y="528"/>
      <point x="565" y="483"/>
      <point x="550" y="385" type="curve" smooth="yes"/>
      <point x="520" y="188" type="line" smooth="yes"/>
      <point x="514" y="150"/>
      <point x="504" y="97"/>
      <point x="498" y="40" type="curve"/>
      <point x="494" y="40" type="line"/>
      <point x="470" y="102"/>
      <point x="457" y="135"/>
      <point x="425" y="212" type="curve" smooth="yes"/>
      <point x="338" y="422" type="line"/>
      <point x="312" y="422" type="line"/>
      <point x="227" y="212" type="line" smooth="yes"/>
      <point x="196" y="135"/>
      <point x="181" y="102"/>
      <point x="157" y="40" type="curve"/>
      <point x="153" y="40" type="line"/>
      <point x="147" y="97"/>
      <point x="138" y="150"/>
      <point x="132" y="189" type="curve" smooth="yes"/>
      <point x="80" y="517" type="line"/>
      <point x="53" y="517" type="line"/>
    </contour>
  </outline>
</glyph>
<glyph name="oAng-thai" format="2">
  <advance width="564"/>
  <unicode hex="0E2D"/>
  <note>
uni0E2D
</note>
  <anchor x="401" y="0" name="bottom"/>
  <anchor x="467" y="506" name="top"/>
  <outline>
    <contour>
      <point x="270" y="-9" type="curve" smooth="yes"/>
      <point x="427" y="-9"/>
      <point x="490" y="78"/>
      <point x="490" y="256" type="curve" smooth="yes"/>
      <point x="490" y="426"/>
      <point x="428" y="525"/>
      <point x="263" y="525" type="curve" smooth="yes"/>
      <point x="191" y="525"/>
      <point x="124" y="506"/>
      <point x="85" y="489" type="curve"/>
      <point x="85" y="460" type="line"/>
      <point x="135" y="484"/>
      <point x="199" y="500"/>
      <point x="262" y="500" type="curve" smooth="yes"/>
      <point x="413" y="500"/>
      <point x="463" y="406"/>
      <point x="463" y="257" type="curve" smooth="yes"/>
      <point x="463" y="82"/>
      <point x="400" y="14"/>
      <point x="272" y="14" type="curve" smooth="yes"/>
      <point x="145" y="14"/>
      <point x="98" y="81"/>
      <point x="98" y="212" type="curve" smooth="yes"/>
      <point x="98" y="260" type="line"/>
      <point x="254" y="260" type="line"/>
      <point x="254" y="283" type="line"/>
      <point x="75" y="283" type="line"/>
      <point x="73" y="265"/>
      <point x="72" y="232"/>
      <point x="72" y="212" type="curve" smooth="yes"/>
      <point x="72" y="59"/>
      <point x="131" y="-9"/>
    </contour>
  </outline>
</glyph>
<glyph name="hoNokhuk-thai" format="2">
  <advance width="550"/>
  <unicode hex="0E2E"/>
  <anchor x="401" y="0" name="bottom"/>
  <anchor x="458" y="506" name="top"/>
  <outline>
    <contour>
      <point x="270" y="-9" type="curve" smooth="yes"/>
      <point x="427" y="-9"/>
      <point x="490" y="78"/>
      <point x="490" y="255" type="curve" smooth="yes"/>
      <point x="490" y="350"/>
      <point x="472" y="424"/>
      <point x="427" y="468" type="curve"/>
      <point x="394" y="506"/>
      <point x="336" y="525"/>
      <point x="263" y="525" type="curve" smooth="yes"/>
      <point x="190" y="525"/>
      <point x="124" y="506"/>
      <point x="85" y="489" type="curve"/>
      <point x="85" y="460" type="line"/>
      <point x="135" y="484"/>
      <point x="199" y="500"/>
      <point x="262" y="500" type="curve" smooth="yes"/>
      <point x="413" y="500"/>
      <point x="463" y="406"/>
      <point x="463" y="257" type="curve" smooth="yes"/>
      <point x="463" y="82"/>
      <point x="400" y="14"/>
      <point x="272" y="14" type="curve" smooth="yes"/>
      <point x="145" y="14"/>
      <point x="98" y="81"/>
      <point x="98" y="212" type="curve" smooth="yes"/>
      <point x="98" y="260" type="line"/>
      <point x="254" y="260" type="line"/>
      <point x="254" y="283" type="line"/>
      <point x="75" y="283" type="line"/>
      <point x="73" y="265"/>
      <point x="72" y="232"/>
      <point x="72" y="212" type="curve" smooth="yes"/>
      <point x="72" y="59"/>
      <point x="131" y="-9"/>
    </contour>
    <contour>
      <point x="416" y="454" type="line"/>
      <point x="471" y="468"/>
      <point x="512" y="500"/>
      <point x="512" y="551" type="curve"/>
      <point x="484" y="551" type="line"/>
      <point x="484" y="505"/>
      <point x="448" y="483"/>
      <point x="402" y="472" type="curve"/>
    </contour>
  </outline>
</glyph>
<glyph name="paiyannoi-thai" format="2">
  <advance width="512"/>
  <unicode hex="0E2F"/>
  <outline>
    <contour>
      <point x="366" y="-1" type="line"/>
      <point x="392" y="-1" type="line"/>
      <point x="392" y="517" type="line"/>
      <point x="366" y="517" type="line"/>
      <point x="366" y="408" type="line" smooth="yes"/>
      <point x="366" y="316"/>
      <point x="318" y="260"/>
      <point x="208" y="260" type="curve" smooth="yes"/>
      <point x="108" y="260"/>
      <point x="59" y="308"/>
      <point x="59" y="391" type="curve" smooth="yes"/>
      <point x="59" y="469"/>
      <point x="105" y="500"/>
      <point x="167" y="500" type="curve" smooth="yes"/>
      <point x="182" y="500"/>
      <point x="201" y="497"/>
      <point x="214" y="492" type="curve"/>
      <point x="219" y="515" type="line"/>
      <point x="200" y="523"/>
      <point x="181" y="525"/>
      <point x="165" y="525" type="curve" smooth="yes"/>
      <point x="86" y="525"/>
      <point x="32" y="480"/>
      <point x="32" y="396" type="curve" smooth="yes"/>
      <point x="32" y="298"/>
      <point x="87" y="237"/>
      <point x="203" y="237" type="curve" smooth="yes"/>
      <point x="292" y="237"/>
      <point x="335" y="263"/>
      <point x="370" y="321" type="curve"/>
      <point x="366" y="325" type="line"/>
    </contour>
  </outline>
</glyph>
<glyph name="saraA-thai" format="2">
  <advance width="334"/>
  <unicode hex="0E30"/>
  <outline>
    <contour>
      <point x="114" y="366" type="curve" smooth="yes"/>
      <point x="284" y="366" type="line"/>
      <point x="284" y="390" type="line"/>
      <point x="117" y="390" type="line" smooth="yes"/>
      <point x="86" y="390"/>
      <point x="75" y="402"/>
      <point x="75" y="423" type="curve" smooth="yes"/>
      <point x="75" y="434"/>
      <point x="79" y="448"/>
      <point x="83" y="456" type="curve"/>
      <point x="59" y="460" type="line"/>
      <point x="54" y="450"/>
      <point x="50" y="432"/>
      <point x="50" y="419" type="curve" smooth="yes"/>
      <point x="50" y="389"/>
      <point x="69" y="366"/>
    </contour>
    <contour>
      <point x="114" y="86" type="curve" smooth="yes"/>
      <point x="284" y="86" type="line"/>
      <point x="284" y="110" type="line"/>
      <point x="117" y="110" type="line" smooth="yes"/>
      <point x="86" y="110"/>
      <point x="75" y="122"/>
      <point x="75" y="143" type="curve" smooth="yes"/>
      <point x="75" y="154"/>
      <point x="79" y="168"/>
      <point x="83" y="176" type="curve"/>
      <point x="59" y="180" type="line"/>
      <point x="54" y="170"/>
      <point x="50" y="152"/>
      <point x="50" y="139" type="curve" smooth="yes"/>
      <point x="50" y="109"/>
      <point x="69" y="86"/>
    </contour>
  </outline>
</glyph>
<glyph name="maiHanaKat-thai" format="2">
  <unicode hex="0E31"/>
  <anchor x="-104" y="506" name="_top"/>
  <anchor x="-134" y="684" name="top"/>
  <outline>
    <contour>
      <point x="-247" y="606" type="curve" smooth="yes"/>
      <point x="33" y="606" type="line"/>
      <point x="33" y="630" type="line"/>
      <point x="-244" y="630" type="line" smooth="yes"/>
      <point x="-275" y="630"/>
      <point x="-286" y="642"/>
      <point x="-286" y="663" type="curve" smooth="yes"/>
      <point x="-286" y="674"/>
      <point x="-282" y="688"/>
      <point x="-278" y="696" type="curve"/>
      <point x="-302" y="700" type="line"/>
      <point x="-307" y="690"/>
      <point x="-311" y="672"/>
      <point x="-311" y="659" type="curve" smooth="yes"/>
      <point x="-311" y="629"/>
      <point x="-292" y="606"/>
    </contour>
  </outline>
</glyph>
<glyph name="saraAa-thai" format="2">
  <advance width="408"/>
  <unicode hex="0E32"/>
  <outline>
    <contour>
      <point x="290" y="0" type="line"/>
      <point x="316" y="0" type="line"/>
      <point x="316" y="393" type="line" smooth="yes"/>
      <point x="316" y="477"/>
      <point x="271" y="525"/>
      <point x="172" y="525" type="curve" smooth="yes"/>
      <point x="113" y="525"/>
      <point x="61" y="507"/>
      <point x="30" y="494" type="curve"/>
      <point x="30" y="465" type="line"/>
      <point x="71" y="485"/>
      <point x="127" y="500"/>
      <point x="167" y="500" type="curve" smooth="yes"/>
      <point x="253" y="500"/>
      <point x="290" y="461"/>
      <point x="290" y="385" type="curve" smooth="yes"/>
    </contour>
  </outline>
</glyph>
<glyph name="saraI-thai" format="2">
  <unicode hex="0E34"/>
  <anchor x="-104" y="506" name="_top"/>
  <anchor x="-104" y="683" name="top"/>
  <outline>
    <contour>
      <point x="-498" y="606" type="line"/>
      <point x="-104" y="606" type="line"/>
      <point x="-104" y="630" type="line"/>
      <point x="-470" y="630" type="line"/>
      <point x="-498" y="620" type="line"/>
    </contour>
  </outline>
</glyph>
<glyph name="saraIi-thai" format="2">
  <unicode hex="0E35"/>
  <anchor x="-104" y="506" name="_top"/>
  <anchor x="-104" y="742" name="top"/>
  <outline>
    <contour>
      <point x="-498" y="606" type="line"/>
      <point x="-104" y="606" type="line"/>
      <point x="-104" y="630" type="line"/>
      <point x="-470" y="630" type="line"/>
      <point x="-498" y="620" type="line"/>
    </contour>
    <contour>
      <point x="-129" y="624" type="line"/>
      <point x="-104" y="624" type="line"/>
      <point x="-104" y="726" type="line"/>
      <point x="-129" y="726" type="line"/>
    </contour>
  </outline>
</glyph>
<glyph name="saraUe-thai" format="2">
  <unicode hex="0E36"/>
  <anchor x="-104" y="506" name="_top"/>
  <anchor x="-149" y="742" name="top"/>
  <outline>
    <contour>
      <point x="-498" y="606" type="line"/>
      <point x="-168" y="606" type="line" smooth="yes"/>
      <point x="-128" y="606"/>
      <point x="-95" y="627"/>
      <point x="-95" y="670" type="curve" smooth="yes"/>
      <point x="-95" y="713"/>
      <point x="-126" y="734"/>
      <point x="-164" y="734" type="curve" smooth="yes"/>
      <point x="-201" y="734"/>
      <point x="-232" y="714"/>
      <point x="-232" y="671" type="curve" smooth="yes"/>
      <point x="-232" y="649"/>
      <point x="-220" y="627"/>
      <point x="-201" y="617" type="curve"/>
      <point x="-197" y="630" type="line"/>
      <point x="-470" y="630" type="line"/>
      <point x="-498" y="620" type="line"/>
    </contour>
    <contour>
      <point x="-164" y="630" type="curve" smooth="yes"/>
      <point x="-188" y="630"/>
      <point x="-206" y="645"/>
      <point x="-206" y="670" type="curve" smooth="yes"/>
      <point x="-206" y="695"/>
      <point x="-188" y="710"/>
      <point x="-164" y="710" type="curve" smooth="yes"/>
      <point x="-140" y="710"/>
      <point x="-122" y="695"/>
      <point x="-122" y="670" type="curve" smooth="yes"/>
      <point x="-122" y="645"/>
      <point x="-140" y="630"/>
    </contour>
  </outline>
</glyph>
<glyph name="saraUee-thai" format="2">
  <unicode hex="0E37"/>
  <anchor x="-104" y="506" name="_top"/>
  <anchor x="-140" y="742" name="top"/>
  <outline>
    <contour>
      <point x="-498" y="606" type="line"/>
      <point x="-104" y="606" type="line"/>
      <point x="-104" y="630" type="line"/>
      <point x="-470" y="630" type="line"/>
      <point x="-498" y="620" type="line"/>
    </contour>
    <contour>
      <point x="-210" y="624" type="line"/>
      <point x="-187" y="624" type="line"/>
      <point x="-187" y="713" type="line"/>
      <point x="-210" y="713" type="line"/>
    </contour>
    <contour>
      <point x="-127" y="624" type="line"/>
      <point x="-104" y="624" type="line"/>
      <point x="-104" y="713" type="line"/>
      <point x="-127" y="713" type="line"/>
    </contour>
  </outline>
</glyph>
<glyph name="saraU-thai" format="2">
  <unicode hex="0E38"/>
  <anchor x="-104" y="0" name="_bottom"/>
  <anchor x="-104" y="-271" name="bottom"/>
  <outline>
    <contour>
      <point x="-130" y="-261" type="line"/>
      <point x="-104" y="-261" type="line"/>
      <point x="-104" y="-108" type="line" smooth="yes"/>
      <point x="-104" y="-88"/>
      <point x="-118" y="-74"/>
      <point x="-142" y="-74" type="curve" smooth="yes"/>
      <point x="-151" y="-74"/>
      <point x="-162" y="-75"/>
      <point x="-174" y="-80" type="curve"/>
      <point x="-171" y="-102" type="line"/>
      <point x="-165" y="-100"/>
      <point x="-156" y="-98"/>
      <point x="-150" y="-98" type="curve" smooth="yes"/>
      <point x="-135" y="-98"/>
      <point x="-130" y="-105"/>
      <point x="-130" y="-122" type="curve" smooth="yes"/>
    </contour>
  </outline>
</glyph>
<glyph name="saraUu-thai" format="2">
  <unicode hex="0E39"/>
  <anchor x="-104" y="0" name="_bottom"/>
  <anchor x="-104" y="-265" name="bottom"/>
  <outline>
    <contour>
      <point x="-198" y="-261" type="curve" smooth="yes"/>
      <point x="-135" y="-261"/>
      <point x="-104" y="-225"/>
      <point x="-104" y="-169" type="curve" smooth="yes"/>
      <point x="-104" y="-77" type="line"/>
      <point x="-130" y="-77" type="line"/>
      <point x="-130" y="-173" type="line" smooth="yes"/>
      <point x="-130" y="-212"/>
      <point x="-152" y="-238"/>
      <point x="-198" y="-238" type="curve" smooth="yes"/>
      <point x="-244" y="-238"/>
      <point x="-266" y="-212"/>
      <point x="-266" y="-173" type="curve" smooth="yes"/>
      <point x="-266" y="-112" type="line" smooth="yes"/>
      <point x="-266" y="-86"/>
      <point x="-280" y="-74"/>
      <point x="-303" y="-74" type="curve" smooth="yes"/>
      <point x="-312" y="-74"/>
      <point x="-324" y="-76"/>
      <point x="-331" y="-79" type="curve"/>
      <point x="-327" y="-102" type="line"/>
      <point x="-303" y="-94"/>
      <point x="-292" y="-99"/>
      <point x="-292" y="-116" type="curve" smooth="yes"/>
      <point x="-292" y="-171" type="line" smooth="yes"/>
      <point x="-292" y="-225"/>
      <point x="-261" y="-261"/>
    </contour>
  </outline>
</glyph>
<glyph name="phinthu-thai" format="2">
  <unicode hex="0E3A"/>
  <anchor x="-104" y="0" name="_bottom"/>
  <anchor x="-104" y="-174" name="bottom"/>
  <outline>
    <contour>
      <point x="-120" y="-145" type="curve" smooth="yes"/>
      <point x="-98" y="-145"/>
      <point x="-85" y="-133"/>
      <point x="-85" y="-110" type="curve" smooth="yes"/>
      <point x="-85" y="-87"/>
      <point x="-98" y="-75"/>
      <point x="-120" y="-75" type="curve" smooth="yes"/>
      <point x="-142" y="-75"/>
      <point x="-155" y="-87"/>
      <point x="-155" y="-110" type="curve" smooth="yes"/>
      <point x="-155" y="-133"/>
      <point x="-142" y="-145"/>
    </contour>
  </outline>
</glyph>
<glyph name="saraE-thai" format="2">
  <advance width="261"/>
  <unicode hex="0E40"/>
  <outline>
    <contour>
      <point x="179" y="-9" type="curve" smooth="yes"/>
      <point x="195" y="-9"/>
      <point x="216" y="-6"/>
      <point x="231" y="1" type="curve"/>
      <point x="225" y="24" type="line"/>
      <point x="214" y="19"/>
      <point x="195" y="14"/>
      <point x="180" y="14" type="curve" smooth="yes"/>
      <point x="152" y="14"/>
      <point x="133" y="28"/>
      <point x="133" y="62" type="curve" smooth="yes"/>
      <point x="133" y="517" type="line"/>
      <point x="107" y="517" type="line"/>
      <point x="107" y="57" type="line" smooth="yes"/>
      <point x="107" y="10"/>
      <point x="141" y="-9"/>
    </contour>
  </outline>
</glyph>
<glyph name="saraO-thai" format="2">
  <advance width="263"/>
  <unicode hex="0E42"/>
  <outline>
    <contour>
      <point x="116" y="423" type="line"/>
      <point x="142" y="423" type="line"/>
      <point x="142" y="624" type="line" smooth="yes"/>
      <point x="142" y="683"/>
      <point x="127" y="711"/>
      <point x="92" y="733" type="curve"/>
      <point x="93" y="737" type="line"/>
      <point x="294" y="737" type="line"/>
      <point x="294" y="761" type="line"/>
      <point x="53" y="761" type="line"/>
      <point x="20" y="748" type="line"/>
      <point x="20" y="737" type="line"/>
      <point x="83" y="737"/>
      <point x="116" y="698"/>
      <point x="116" y="636" type="curve" smooth="yes"/>
    </contour>
    <component base="saraE-thai" xOffset="9"/>
  </outline>
</glyph>
<glyph name="saraAiMaimuan-thai" format="2">
  <advance width="260"/>
  <unicode hex="0E43"/>
  <outline>
    <contour>
      <point x="168" y="-9" type="curve" smooth="yes"/>
      <point x="184" y="-9"/>
      <point x="205" y="-6"/>
      <point x="220" y="1" type="curve"/>
      <point x="214" y="24" type="line"/>
      <point x="203" y="19"/>
      <point x="184" y="14"/>
      <point x="169" y="14" type="curve" smooth="yes"/>
      <point x="141" y="14"/>
      <point x="122" y="28"/>
      <point x="122" y="62" type="curve" smooth="yes"/>
      <point x="122" y="447" type="line" smooth="yes"/>
      <point x="122" y="489"/>
      <point x="139" y="507"/>
      <point x="180" y="558" type="curve" smooth="yes"/>
      <point x="212" y="597"/>
      <point x="235" y="627"/>
      <point x="235" y="673" type="curve" smooth="yes"/>
      <point x="235" y="734"/>
      <point x="194" y="766"/>
      <point x="131" y="766" type="curve" smooth="yes"/>
      <point x="91" y="766"/>
      <point x="47" y="753"/>
      <point x="30" y="745" type="curve"/>
      <point x="30" y="718" type="line"/>
      <point x="51" y="728"/>
      <point x="92" y="741"/>
      <point x="129" y="741" type="curve" smooth="yes"/>
      <point x="175" y="741"/>
      <point x="209" y="720"/>
      <point x="209" y="671" type="curve" smooth="yes"/>
      <point x="209" y="634"/>
      <point x="191" y="612"/>
      <point x="160" y="572" type="curve" smooth="yes"/>
      <point x="120" y="521"/>
      <point x="96" y="500"/>
      <point x="96" y="450" type="curve" smooth="yes"/>
      <point x="96" y="57" type="line" smooth="yes"/>
      <point x="96" y="10"/>
      <point x="130" y="-9"/>
    </contour>
  </outline>
</glyph>
<glyph name="saraAiMaimalai-thai" format="2">
  <advance width="247"/>
  <unicode hex="0E44"/>
  <outline>
    <contour>
      <point x="93" y="423" type="line"/>
      <point x="119" y="423" type="line"/>
      <point x="119" y="636" type="line" smooth="yes"/>
      <point x="119" y="703"/>
      <point x="145" y="737"/>
      <point x="206" y="739" type="curve"/>
      <point x="206" y="761" type="line"/>
      <point x="6" y="761" type="line"/>
      <point x="-2" y="737" type="line"/>
      <point x="137" y="737" type="line"/>
      <point x="138" y="734" type="line"/>
      <point x="108" y="712"/>
      <point x="93" y="693"/>
      <point x="93" y="624" type="curve" smooth="yes"/>
    </contour>
    <component base="saraE-thai" xOffset="-14"/>
  </outline>
</glyph>
<glyph name="maiyamok-thai" format="2">
  <advance width="583"/>
  <unicode hex="0E46"/>
  <outline>
    <contour>
      <point x="465" y="-180" type="line"/>
      <point x="491" y="-180" type="line"/>
      <point x="491" y="425" type="line" smooth="yes"/>
      <point x="491" y="493"/>
      <point x="446" y="525"/>
      <point x="393" y="525" type="curve" smooth="yes"/>
      <point x="335" y="525"/>
      <point x="307" y="500"/>
      <point x="294" y="462" type="curve"/>
      <point x="292" y="462" type="line"/>
      <point x="279" y="500"/>
      <point x="241" y="525"/>
      <point x="198" y="525" type="curve" smooth="yes"/>
      <point x="134" y="525"/>
      <point x="90" y="482"/>
      <point x="90" y="377" type="curve" smooth="yes"/>
      <point x="90" y="276"/>
      <point x="120" y="223"/>
      <point x="197" y="223" type="curve" smooth="yes"/>
      <point x="214" y="223"/>
      <point x="230" y="224"/>
      <point x="250" y="233" type="curve"/>
      <point x="243" y="255" type="line"/>
      <point x="230" y="250"/>
      <point x="216" y="248"/>
      <point x="202" y="248" type="curve" smooth="yes"/>
      <point x="143" y="248"/>
      <point x="116" y="280"/>
      <point x="116" y="379" type="curve" smooth="yes"/>
      <point x="116" y="464"/>
      <point x="149" y="500"/>
      <point x="203" y="500" type="curve" smooth="yes"/>
      <point x="251" y="500"/>
      <point x="281" y="467"/>
      <point x="281" y="415" type="curve" smooth="yes"/>
      <point x="281" y="376" type="line"/>
      <point x="305" y="376" type="line"/>
      <point x="305" y="415" type="line" smooth="yes"/>
      <point x="305" y="467"/>
      <point x="336" y="500"/>
      <point x="385" y="500" type="curve" smooth="yes"/>
      <point x="434" y="500"/>
      <point x="465" y="475"/>
      <point x="465" y="415" type="curve" smooth="yes"/>
    </contour>
  </outline>
</glyph>
<glyph name="maitaikhu-thai" format="2">
  <unicode hex="0E47"/>
  <anchor x="-104" y="506" name="_top"/>
  <anchor x="-237" y="815" name="top"/>
  <outline>
    <contour>
      <point x="-180" y="596" type="curve" smooth="yes"/>
      <point x="-140" y="596"/>
      <point x="-104" y="620"/>
      <point x="-104" y="669" type="curve" smooth="yes"/>
      <point x="-104" y="683" type="line"/>
      <point x="-130" y="683" type="line"/>
      <point x="-130" y="669" type="line" smooth="yes"/>
      <point x="-130" y="639"/>
      <point x="-150" y="621"/>
      <point x="-183" y="621" type="curve" smooth="yes"/>
      <point x="-219" y="621"/>
      <point x="-244" y="644"/>
      <point x="-256" y="683" type="curve"/>
      <point x="-272" y="683" type="line"/>
      <point x="-338" y="624" type="line"/>
      <point x="-380" y="624"/>
      <point x="-408" y="651"/>
      <point x="-408" y="696" type="curve" smooth="yes"/>
      <point x="-408" y="752"/>
      <point x="-374" y="777"/>
      <point x="-326" y="777" type="curve" smooth="yes"/>
      <point x="-105" y="777" type="line"/>
      <point x="-105" y="802" type="line"/>
      <point x="-334" y="802" type="line" smooth="yes"/>
      <point x="-390" y="802"/>
      <point x="-435" y="765"/>
      <point x="-435" y="700" type="curve" smooth="yes"/>
      <point x="-435" y="635"/>
      <point x="-396" y="599"/>
      <point x="-330" y="599" type="curve"/>
      <point x="-271" y="654" type="line"/>
      <point x="-253" y="618"/>
      <point x="-224" y="596"/>
    </contour>
  </outline>
</glyph>
<glyph name="maiEk-thai" format="2">
  <unicode hex="0E48"/>
  <anchor x="-104" y="506" name="_top"/>
  <anchor x="-104" y="815" name="top"/>
  <outline>
    <contour>
      <point x="-130" y="606" type="line"/>
      <point x="-104" y="606" type="line"/>
      <point x="-104" y="797" type="line"/>
      <point x="-130" y="797" type="line"/>
    </contour>
  </outline>
</glyph>
<glyph name="maiTho-thai" format="2">
  <unicode hex="0E49"/>
  <anchor x="-104" y="506" name="_top"/>
  <anchor x="-190" y="815" name="top"/>
  <outline>
    <contour>
      <point x="-339" y="606" type="line"/>
      <point x="-70" y="606" type="line"/>
      <point x="-70" y="630" type="line"/>
      <point x="-252" y="630" type="line"/>
      <point x="-253" y="633" type="line"/>
      <point x="-225" y="651"/>
      <point x="-200" y="684"/>
      <point x="-200" y="718" type="curve" smooth="yes"/>
      <point x="-200" y="763"/>
      <point x="-229" y="791"/>
      <point x="-277" y="791" type="curve" smooth="yes"/>
      <point x="-294" y="791"/>
      <point x="-316" y="786"/>
      <point x="-340" y="773" type="curve"/>
      <point x="-332" y="752" type="line"/>
      <point x="-316" y="760"/>
      <point x="-296" y="768"/>
      <point x="-280" y="768" type="curve" smooth="yes"/>
      <point x="-243" y="768"/>
      <point x="-226" y="748"/>
      <point x="-226" y="718" type="curve" smooth="yes"/>
      <point x="-226" y="670"/>
      <point x="-277" y="634"/>
      <point x="-339" y="623" type="curve"/>
    </contour>
  </outline>
</glyph>
<glyph name="maiTri-thai" format="2">
  <unicode hex="0E4A"/>
  <anchor x="-104" y="506" name="_top"/>
  <anchor x="-240" y="815" name="top"/>
  <outline>
    <contour>
      <point x="-324" y="601" type="curve" smooth="yes"/>
      <point x="-307" y="601"/>
      <point x="-294" y="604"/>
      <point x="-286" y="608" type="curve"/>
      <point x="-292" y="629" type="line"/>
      <point x="-299" y="626"/>
      <point x="-310" y="624"/>
      <point x="-317" y="624" type="curve" smooth="yes"/>
      <point x="-356" y="624"/>
      <point x="-383" y="647"/>
      <point x="-383" y="691" type="curve" smooth="yes"/>
      <point x="-383" y="741"/>
      <point x="-354" y="759"/>
      <point x="-324" y="762" type="curve"/>
      <point x="-276" y="731" type="line"/>
      <point x="-266" y="731" type="line"/>
      <point x="-218" y="762" type="line"/>
      <point x="-188" y="754"/>
      <point x="-159" y="737"/>
      <point x="-159" y="690" type="curve" smooth="yes"/>
      <point x="-159" y="659"/>
      <point x="-180" y="631"/>
      <point x="-214" y="621" type="curve"/>
      <point x="-214" y="606" type="line"/>
      <point x="-70" y="606" type="line"/>
      <point x="-70" y="627" type="line"/>
      <point x="-158" y="627" type="line"/>
      <point x="-160" y="631" type="line"/>
      <point x="-141" y="647"/>
      <point x="-133" y="670"/>
      <point x="-133" y="696" type="curve" smooth="yes"/>
      <point x="-133" y="744"/>
      <point x="-168" y="776"/>
      <point x="-217" y="789" type="curve"/>
      <point x="-271" y="752" type="line"/>
      <point x="-325" y="789" type="line"/>
      <point x="-374" y="783"/>
      <point x="-409" y="749"/>
      <point x="-409" y="692" type="curve" smooth="yes"/>
      <point x="-409" y="634"/>
      <point x="-372" y="601"/>
    </contour>
  </outline>
</glyph>
<glyph name="maiChattawa-thai" format="2">
  <unicode hex="0E4B"/>
  <anchor x="-102" y="506" name="_top"/>
  <anchor x="-187" y="815" name="top"/>
  <outline>
    <contour>
      <point x="-213" y="606" type="line"/>
      <point x="-187" y="606" type="line"/>
      <point x="-187" y="797" type="line"/>
      <point x="-213" y="797" type="line"/>
    </contour>
    <contour>
      <point x="-299" y="688" type="line"/>
      <point x="-101" y="688" type="line"/>
      <point x="-101" y="711" type="line"/>
      <point x="-299" y="711" type="line"/>
    </contour>
  </outline>
</glyph>
<glyph name="thanthakhat-thai" format="2">
  <unicode hex="0E4C"/>
  <anchor x="-104" y="506" name="_top"/>
  <anchor x="-144" y="741" name="top"/>
  <outline>
    <contour>
      <point x="-241" y="605" type="curve"/>
      <point x="-217" y="610" type="line"/>
      <point x="-223" y="619"/>
      <point x="-226" y="630"/>
      <point x="-226" y="640" type="curve" smooth="yes"/>
      <point x="-226" y="661"/>
      <point x="-216" y="673"/>
      <point x="-183" y="673" type="curve" smooth="yes"/>
      <point x="-67" y="673" type="line"/>
      <point x="-67" y="697" type="line"/>
      <point x="-189" y="697" type="line" smooth="yes"/>
      <point x="-228" y="697"/>
      <point x="-251" y="677"/>
      <point x="-251" y="645" type="curve" smooth="yes"/>
      <point x="-251" y="630"/>
      <point x="-248" y="616"/>
    </contour>
  </outline>
</glyph>
<glyph name="nikhahit-thai" format="2">
  <unicode hex="0E4D"/>
  <anchor x="-104" y="506" name="_top"/>
  <anchor x="-138" y="752" name="top"/>
  <outline>
    <contour>
      <point x="-154" y="580" type="curve" smooth="yes"/>
      <point x="-106" y="580"/>
      <point x="-67" y="607"/>
      <point x="-67" y="661" type="curve" smooth="yes"/>
      <point x="-67" y="715"/>
      <point x="-106" y="742"/>
      <point x="-154" y="742" type="curve" smooth="yes"/>
      <point x="-201" y="742"/>
      <point x="-240" y="715"/>
      <point x="-240" y="661" type="curve" smooth="yes"/>
      <point x="-240" y="607"/>
      <point x="-201" y="580"/>
    </contour>
    <contour>
      <point x="-154" y="602" type="curve" smooth="yes"/>
      <point x="-192" y="602"/>
      <point x="-216" y="625"/>
      <point x="-216" y="661" type="curve" smooth="yes"/>
      <point x="-216" y="697"/>
      <point x="-192" y="720"/>
      <point x="-154" y="720" type="curve" smooth="yes"/>
      <point x="-115" y="720"/>
      <point x="-91" y="697"/>
      <point x="-91" y="661" type="curve" smooth="yes"/>
      <point x="-91" y="625"/>
      <point x="-115" y="602"/>
    </contour>
  </outline>
</glyph>
<glyph name="yamakkan-thai" format="2">
  <unicode hex="0E4E"/>
  <anchor x="-104" y="506" name="_top"/>
  <anchor x="-107" y="741" name="top"/>
  <outline>
    <contour>
      <point x="-241" y="584" type="curve"/>
      <point x="-217" y="588" type="line"/>
      <point x="-222" y="596"/>
      <point x="-226" y="607"/>
      <point x="-226" y="616" type="curve" smooth="yes"/>
      <point x="-226" y="639"/>
      <point x="-212" y="654"/>
      <point x="-184" y="654" type="curve" smooth="yes"/>
      <point x="-169" y="654"/>
      <point x="-154" y="646"/>
      <point x="-144" y="638" type="curve"/>
      <point x="-120" y="655" type="line"/>
      <point x="-126" y="664"/>
      <point x="-129" y="673"/>
      <point x="-129" y="681" type="curve" smooth="yes"/>
      <point x="-129" y="706"/>
      <point x="-113" y="714"/>
      <point x="-92" y="714" type="curve" smooth="yes"/>
      <point x="-85" y="714"/>
      <point x="-73" y="713"/>
      <point x="-61" y="710" type="curve"/>
      <point x="-61" y="730" type="line"/>
      <point x="-70" y="735"/>
      <point x="-84" y="738"/>
      <point x="-99" y="738" type="curve" smooth="yes"/>
      <point x="-129" y="738"/>
      <point x="-154" y="720"/>
      <point x="-154" y="689" type="curve" smooth="yes"/>
      <point x="-154" y="682"/>
      <point x="-153" y="674"/>
      <point x="-150" y="668" type="curve"/>
      <point x="-152" y="666" type="line"/>
      <point x="-161" y="672"/>
      <point x="-175" y="676"/>
      <point x="-190" y="676" type="curve" smooth="yes"/>
      <point x="-218" y="676"/>
      <point x="-251" y="660"/>
      <point x="-251" y="619" type="curve" smooth="yes"/>
      <point x="-251" y="608"/>
      <point x="-247" y="593"/>
    </contour>
  </outline>
</glyph>
<glyph name="fongman-thai" format="2">
  <advance width="567"/>
  <unicode hex="0E4F"/>
  <outline>
    <contour>
      <point x="283" y="0" type="curve" smooth="yes"/>
      <point x="425" y="0"/>
      <point x="497" y="82"/>
      <point x="497" y="228" type="curve" smooth="yes"/>
      <point x="497" y="380"/>
      <point x="425" y="455"/>
      <point x="283" y="455" type="curve" smooth="yes"/>
      <point x="142" y="455"/>
      <point x="70" y="380"/>
      <point x="70" y="228" type="curve" smooth="yes"/>
      <point x="70" y="82"/>
      <point x="142" y="0"/>
    </contour>
    <contour>
      <point x="283" y="25" type="curve" smooth="yes"/>
      <point x="159" y="25"/>
      <point x="97" y="98"/>
      <point x="97" y="228" type="curve" smooth="yes"/>
      <point x="97" y="365"/>
      <point x="159" y="430"/>
      <point x="283" y="430" type="curve" smooth="yes"/>
      <point x="407" y="430"/>
      <point x="470" y="365"/>
      <point x="470" y="228" type="curve" smooth="yes"/>
      <point x="470" y="98"/>
      <point x="407" y="25"/>
    </contour>
    <contour>
      <point x="283" y="136" type="curve" smooth="yes"/>
      <point x="334" y="136"/>
      <point x="361" y="173"/>
      <point x="361" y="228" type="curve" smooth="yes"/>
      <point x="361" y="286"/>
      <point x="334" y="319"/>
      <point x="283" y="319" type="curve" smooth="yes"/>
      <point x="232" y="319"/>
      <point x="206" y="286"/>
      <point x="206" y="228" type="curve" smooth="yes"/>
      <point x="206" y="173"/>
      <point x="232" y="136"/>
    </contour>
  </outline>
</glyph>
<glyph name="zero-thai" format="2">
  <advance width="563"/>
  <unicode hex="0E50"/>
  <outline>
    <contour>
      <point x="281" y="-10" type="curve" smooth="yes"/>
      <point x="419" y="-10"/>
      <point x="493" y="79"/>
      <point x="493" y="227" type="curve" smooth="yes"/>
      <point x="493" y="381"/>
      <point x="419" y="463"/>
      <point x="281" y="463" type="curve" smooth="yes"/>
      <point x="144" y="463"/>
      <point x="70" y="381"/>
      <point x="70" y="227" type="curve" smooth="yes"/>
      <point x="70" y="79"/>
      <point x="144" y="-10"/>
    </contour>
    <contour>
      <point x="281" y="15" type="curve" smooth="yes"/>
      <point x="161" y="15"/>
      <point x="97" y="96"/>
      <point x="97" y="227" type="curve" smooth="yes"/>
      <point x="97" y="365"/>
      <point x="161" y="438"/>
      <point x="281" y="438" type="curve" smooth="yes"/>
      <point x="401" y="438"/>
      <point x="466" y="365"/>
      <point x="466" y="227" type="curve" smooth="yes"/>
      <point x="466" y="96"/>
      <point x="401" y="15"/>
    </contour>
  </outline>
</glyph>
<glyph name="one-thai" format="2">
  <advance width="538"/>
  <unicode hex="0E51"/>
  <outline>
    <contour>
      <point x="262" y="-10" type="curve" smooth="yes"/>
      <point x="406" y="-10"/>
      <point x="468" y="92"/>
      <point x="468" y="235" type="curve" smooth="yes"/>
      <point x="468" y="390"/>
      <point x="395" y="463"/>
      <point x="261" y="463" type="curve" smooth="yes"/>
      <point x="141" y="463"/>
      <point x="64" y="405"/>
      <point x="64" y="294" type="curve" smooth="yes"/>
      <point x="64" y="201"/>
      <point x="117" y="149"/>
      <point x="196" y="149" type="curve" smooth="yes"/>
      <point x="207" y="149"/>
      <point x="225" y="150"/>
      <point x="238" y="156" type="curve"/>
      <point x="234" y="178" type="line"/>
      <point x="225" y="175"/>
      <point x="214" y="173"/>
      <point x="200" y="173" type="curve" smooth="yes"/>
      <point x="130" y="173"/>
      <point x="91" y="220"/>
      <point x="91" y="295" type="curve" smooth="yes"/>
      <point x="91" y="390"/>
      <point x="155" y="438"/>
      <point x="258" y="438" type="curve" smooth="yes"/>
      <point x="372" y="438"/>
      <point x="441" y="380"/>
      <point x="441" y="233" type="curve" smooth="yes"/>
      <point x="441" y="105"/>
      <point x="389" y="15"/>
      <point x="258" y="15" type="curve" smooth="yes"/>
      <point x="230" y="15"/>
      <point x="213" y="20"/>
      <point x="198" y="25" type="curve"/>
      <point x="198" y="0" type="line"/>
      <point x="213" y="-6"/>
      <point x="235" y="-10"/>
    </contour>
  </outline>
</glyph>
<glyph name="two-thai" format="2">
  <advance width="618"/>
  <unicode hex="0E52"/>
  <outline>
    <contour>
      <point x="321" y="-10" type="curve" smooth="yes"/>
      <point x="483" y="-10"/>
      <point x="546" y="79"/>
      <point x="546" y="192" type="curve" smooth="yes"/>
      <point x="546" y="369" type="line" smooth="yes"/>
      <point x="546" y="435"/>
      <point x="508" y="463"/>
      <point x="460" y="463" type="curve" smooth="yes"/>
      <point x="418" y="463"/>
      <point x="387" y="440"/>
      <point x="380" y="406" type="curve"/>
      <point x="378" y="406" type="line"/>
      <point x="370" y="438"/>
      <point x="344" y="463"/>
      <point x="301" y="463" type="curve" smooth="yes"/>
      <point x="253" y="463"/>
      <point x="211" y="432"/>
      <point x="211" y="343" type="curve" smooth="yes"/>
      <point x="211" y="262"/>
      <point x="244" y="221"/>
      <point x="306" y="221" type="curve" smooth="yes"/>
      <point x="323" y="221"/>
      <point x="339" y="224"/>
      <point x="354" y="232" type="curve"/>
      <point x="348" y="254" type="line"/>
      <point x="338" y="249"/>
      <point x="324" y="246"/>
      <point x="309" y="246" type="curve" smooth="yes"/>
      <point x="260" y="246"/>
      <point x="237" y="277"/>
      <point x="237" y="344" type="curve" smooth="yes"/>
      <point x="237" y="408"/>
      <point x="263" y="438"/>
      <point x="303" y="438" type="curve" smooth="yes"/>
      <point x="346" y="438"/>
      <point x="365" y="409"/>
      <point x="367" y="358" type="curve"/>
      <point x="390" y="358" type="line"/>
      <point x="392" y="406"/>
      <point x="409" y="438"/>
      <point x="455" y="438" type="curve" smooth="yes"/>
      <point x="496" y="438"/>
      <point x="520" y="416"/>
      <point x="520" y="364" type="curve" smooth="yes"/>
      <point x="520" y="197" type="line" smooth="yes"/>
      <point x="520" y="92"/>
      <point x="468" y="15"/>
      <point x="321" y="15" type="curve" smooth="yes"/>
      <point x="175" y="15"/>
      <point x="110" y="92"/>
      <point x="110" y="197" type="curve" smooth="yes"/>
      <point x="110" y="584" type="line"/>
      <point x="84" y="584" type="line"/>
      <point x="84" y="192" type="line" smooth="yes"/>
      <point x="84" y="79"/>
      <point x="159" y="-10"/>
    </contour>
  </outline>
</glyph>
<glyph name="three-thai" format="2">
  <advance width="551"/>
  <unicode hex="0E53"/>
  <outline>
    <contour>
      <point x="212" y="-10" type="curve" smooth="yes"/>
      <point x="228" y="-10"/>
      <point x="246" y="-7"/>
      <point x="258" y="-1" type="curve"/>
      <point x="254" y="21" type="line"/>
      <point x="245" y="17"/>
      <point x="231" y="14"/>
      <point x="219" y="14" type="curve" smooth="yes"/>
      <point x="130" y="14"/>
      <point x="96" y="90"/>
      <point x="96" y="248" type="curve" smooth="yes"/>
      <point x="96" y="398"/>
      <point x="149" y="438"/>
      <point x="196" y="438" type="curve" smooth="yes"/>
      <point x="226" y="438"/>
      <point x="261" y="424"/>
      <point x="269" y="367" type="curve"/>
      <point x="291" y="367" type="line"/>
      <point x="299" y="424"/>
      <point x="339" y="438"/>
      <point x="372" y="438" type="curve" smooth="yes"/>
      <point x="416" y="438"/>
      <point x="450" y="413"/>
      <point x="450" y="358" type="curve" smooth="yes"/>
      <point x="450" y="0" type="line"/>
      <point x="476" y="0" type="line"/>
      <point x="476" y="357" type="line" smooth="yes"/>
      <point x="476" y="428"/>
      <point x="431" y="463"/>
      <point x="378" y="463" type="curve" smooth="yes"/>
      <point x="335" y="463"/>
      <point x="294" y="446"/>
      <point x="281" y="400" type="curve"/>
      <point x="279" y="400" type="line"/>
      <point x="267" y="446"/>
      <point x="232" y="463"/>
      <point x="192" y="463" type="curve" smooth="yes"/>
      <point x="133" y="463"/>
      <point x="70" y="415"/>
      <point x="70" y="246" type="curve" smooth="yes"/>
      <point x="70" y="73"/>
      <point x="113" y="-10"/>
    </contour>
  </outline>
</glyph>
<glyph name="six-thai" format="2">
  <advance width="537"/>
  <unicode hex="0E56"/>
  <outline>
    <contour>
      <point x="275" y="-10" type="curve" smooth="yes"/>
      <point x="394" y="-10"/>
      <point x="467" y="55"/>
      <point x="467" y="227" type="curve" smooth="yes"/>
      <point x="467" y="390"/>
      <point x="401" y="463"/>
      <point x="280" y="463" type="curve" smooth="yes"/>
      <point x="219" y="463"/>
      <point x="162" y="444"/>
      <point x="126" y="387" type="curve"/>
      <point x="134" y="383" type="line"/>
      <point x="80" y="584" type="line"/>
      <point x="52" y="584" type="line"/>
      <point x="117" y="351" type="line"/>
      <point x="132" y="351" type="line"/>
      <point x="164" y="413"/>
      <point x="211" y="438"/>
      <point x="278" y="438" type="curve" smooth="yes"/>
      <point x="389" y="438"/>
      <point x="441" y="370"/>
      <point x="441" y="230" type="curve" smooth="yes"/>
      <point x="441" y="80"/>
      <point x="381" y="15"/>
      <point x="275" y="15" type="curve" smooth="yes"/>
      <point x="210" y="15"/>
      <point x="165" y="39"/>
      <point x="130" y="77" type="curve"/>
      <point x="110" y="58" type="line"/>
      <point x="152" y="14"/>
      <point x="203" y="-10"/>
    </contour>
  </outline>
</glyph>
<glyph name="seven-thai" format="2">
  <advance width="708"/>
  <unicode hex="0E57"/>
  <outline>
    <contour>
      <point x="212" y="-10" type="curve" smooth="yes"/>
      <point x="228" y="-10"/>
      <point x="246" y="-7"/>
      <point x="258" y="-1" type="curve"/>
      <point x="254" y="22" type="line"/>
      <point x="245" y="18"/>
      <point x="231" y="14"/>
      <point x="219" y="14" type="curve" smooth="yes"/>
      <point x="130" y="14"/>
      <point x="96" y="86"/>
      <point x="96" y="249" type="curve" smooth="yes"/>
      <point x="96" y="404"/>
      <point x="147" y="438"/>
      <point x="190" y="438" type="curve" smooth="yes"/>
      <point x="225" y="438"/>
      <point x="252" y="420"/>
      <point x="260" y="367" type="curve"/>
      <point x="282" y="367" type="line"/>
      <point x="290" y="420"/>
      <point x="321" y="438"/>
      <point x="357" y="438" type="curve" smooth="yes"/>
      <point x="401" y="438"/>
      <point x="427" y="411"/>
      <point x="427" y="361" type="curve" smooth="yes"/>
      <point x="427" y="0" type="line"/>
      <point x="451" y="0" type="line" smooth="yes"/>
      <point x="551" y="0"/>
      <point x="624" y="42"/>
      <point x="624" y="155" type="curve" smooth="yes"/>
      <point x="624" y="584" type="line"/>
      <point x="598" y="584" type="line"/>
      <point x="598" y="154" type="line" smooth="yes"/>
      <point x="598" y="55"/>
      <point x="536" y="25"/>
      <point x="453" y="25" type="curve"/>
      <point x="453" y="365" type="line" smooth="yes"/>
      <point x="453" y="431"/>
      <point x="409" y="463"/>
      <point x="363" y="463" type="curve" smooth="yes"/>
      <point x="323" y="463"/>
      <point x="286" y="446"/>
      <point x="273" y="400" type="curve"/>
      <point x="271" y="400" type="line"/>
      <point x="259" y="446"/>
      <point x="229" y="463"/>
      <point x="187" y="463" type="curve" smooth="yes"/>
      <point x="144" y="463"/>
      <point x="70" y="434"/>
      <point x="70" y="249" type="curve" smooth="yes"/>
      <point x="70" y="70"/>
      <point x="113" y="-10"/>
    </contour>
  </outline>
</glyph>
<glyph name="eight-thai" format="2">
  <advance width="567"/>
  <unicode hex="0E58"/>
  <outline>
    <contour>
      <point x="386" y="-10" type="curve" smooth="yes"/>
      <point x="464" y="-10"/>
      <point x="499" y="46"/>
      <point x="499" y="125" type="curve" smooth="yes"/>
      <point x="499" y="196"/>
      <point x="470" y="235"/>
      <point x="424" y="264" type="curve"/>
      <point x="407" y="243" type="line"/>
      <point x="442" y="222"/>
      <point x="473" y="190"/>
      <point x="473" y="123" type="curve" smooth="yes"/>
      <point x="473" y="63"/>
      <point x="448" y="15"/>
      <point x="385" y="15" type="curve" smooth="yes"/>
      <point x="330" y="15"/>
      <point x="298" y="52"/>
      <point x="296" y="131" type="curve"/>
      <point x="271" y="131" type="line"/>
      <point x="183" y="22" type="line"/>
      <point x="143" y="28"/>
      <point x="96" y="91"/>
      <point x="96" y="229" type="curve" smooth="yes"/>
      <point x="96" y="363"/>
      <point x="140" y="434"/>
      <point x="274" y="434" type="curve" smooth="yes"/>
      <point x="360" y="434" type="line" smooth="yes"/>
      <point x="435" y="434"/>
      <point x="466" y="452"/>
      <point x="466" y="537" type="curve" smooth="yes"/>
      <point x="466" y="584" type="line"/>
      <point x="440" y="584" type="line"/>
      <point x="440" y="541" type="line" smooth="yes"/>
      <point x="440" y="469"/>
      <point x="424" y="458"/>
      <point x="342" y="458" type="curve" smooth="yes"/>
      <point x="268" y="458" type="line" smooth="yes"/>
      <point x="125" y="458"/>
      <point x="70" y="380"/>
      <point x="70" y="227" type="curve" smooth="yes"/>
      <point x="70" y="64"/>
      <point x="132" y="-4"/>
      <point x="193" y="-4" type="curve"/>
      <point x="280" y="105" type="line"/>
      <point x="272" y="105" type="line"/>
      <point x="280" y="38"/>
      <point x="313" y="-10"/>
    </contour>
  </outline>
</glyph>
<glyph name="nine-thai" format="2">
  <advance width="496"/>
  <unicode hex="0E59"/>
  <outline>
    <contour>
      <point x="213" y="-10" type="curve" smooth="yes"/>
      <point x="228" y="-10"/>
      <point x="240" y="-8"/>
      <point x="255" y="-2" type="curve"/>
      <point x="251" y="21" type="line"/>
      <point x="241" y="16"/>
      <point x="229" y="14"/>
      <point x="216" y="14" type="curve" smooth="yes"/>
      <point x="124" y="14"/>
      <point x="96" y="110"/>
      <point x="96" y="237" type="curve" smooth="yes"/>
      <point x="96" y="383"/>
      <point x="133" y="438"/>
      <point x="195" y="438" type="curve" smooth="yes"/>
      <point x="234" y="438"/>
      <point x="255" y="417"/>
      <point x="271" y="377" type="curve" smooth="yes"/>
      <point x="427" y="0" type="line"/>
      <point x="455" y="0" type="line"/>
      <point x="311" y="348" type="line" smooth="yes"/>
      <point x="286" y="408"/>
      <point x="306" y="439"/>
      <point x="348" y="439" type="curve" smooth="yes"/>
      <point x="398" y="439" type="line" smooth="yes"/>
      <point x="447" y="439"/>
      <point x="464" y="462"/>
      <point x="464" y="512" type="curve" smooth="yes"/>
      <point x="464" y="584" type="line"/>
      <point x="438" y="584" type="line"/>
      <point x="438" y="515" type="line" smooth="yes"/>
      <point x="438" y="478"/>
      <point x="434" y="463"/>
      <point x="394" y="463" type="curve" smooth="yes"/>
      <point x="345" y="463" type="line" smooth="yes"/>
      <point x="296" y="463"/>
      <point x="280" y="437"/>
      <point x="281" y="399" type="curve"/>
      <point x="285" y="401" type="line"/>
      <point x="272" y="437"/>
      <point x="248" y="463"/>
      <point x="196" y="463" type="curve" smooth="yes"/>
      <point x="121" y="463"/>
      <point x="70" y="409"/>
      <point x="70" y="237" type="curve" smooth="yes"/>
      <point x="70" y="81"/>
      <point x="112" y="-10"/>
    </contour>
  </outline>
</glyph>
<glyph name="angkhankhu-thai" format="2">
  <advance width="742"/>
  <unicode hex="0E5A"/>
  <outline>
    <contour>
      <point x="366" y="-1" type="line"/>
      <point x="392" y="-1" type="line"/>
      <point x="392" y="517" type="line"/>
      <point x="366" y="517" type="line"/>
      <point x="366" y="407" type="line" smooth="yes"/>
      <point x="366" y="316"/>
      <point x="318" y="260"/>
      <point x="208" y="260" type="curve" smooth="yes"/>
      <point x="108" y="260"/>
      <point x="59" y="308"/>
      <point x="59" y="391" type="curve" smooth="yes"/>
      <point x="59" y="469"/>
      <point x="105" y="500"/>
      <point x="167" y="500" type="curve" smooth="yes"/>
      <point x="182" y="500"/>
      <point x="201" y="497"/>
      <point x="214" y="492" type="curve"/>
      <point x="219" y="515" type="line"/>
      <point x="200" y="523"/>
      <point x="181" y="525"/>
      <point x="165" y="525" type="curve" smooth="yes"/>
      <point x="86" y="525"/>
      <point x="32" y="480"/>
      <point x="32" y="396" type="curve" smooth="yes"/>
      <point x="32" y="298"/>
      <point x="87" y="237"/>
      <point x="203" y="237" type="curve" smooth="yes"/>
      <point x="292" y="237"/>
      <point x="338" y="264"/>
      <point x="370" y="321" type="curve"/>
      <point x="366" y="326" type="line"/>
    </contour>
    <contour>
      <point x="596" y="-1" type="line"/>
      <point x="622" y="-1" type="line"/>
      <point x="622" y="517" type="line"/>
      <point x="596" y="517" type="line"/>
      <point x="596" y="412" type="line" smooth="yes"/>
      <point x="596" y="305"/>
      <point x="534" y="269"/>
      <point x="448" y="269" type="curve" smooth="yes"/>
      <point x="426" y="269"/>
      <point x="400" y="275"/>
      <point x="388" y="280" type="curve"/>
      <point x="382" y="259" type="line"/>
      <point x="401" y="251"/>
      <point x="429" y="247"/>
      <point x="452" y="247" type="curve" smooth="yes"/>
      <point x="523" y="247"/>
      <point x="577" y="271"/>
      <point x="599" y="331" type="curve"/>
      <point x="596" y="334" type="line"/>
    </contour>
  </outline>
</glyph>
<glyph name="khomut-thai" format="2">
  <advance width="780"/>
  <unicode hex="0E5B"/>
  <outline>
    <contour>
      <point x="215" y="80" type="curve" smooth="yes"/>
      <point x="363" y="80"/>
      <point x="402" y="210"/>
      <point x="405" y="282" type="curve"/>
      <point x="398" y="282" type="line"/>
      <point x="476" y="135" type="line"/>
      <point x="486" y="135" type="line"/>
      <point x="531" y="283" type="line"/>
      <point x="523" y="283" type="line"/>
      <point x="582" y="145" type="line"/>
      <point x="592" y="145" type="line"/>
      <point x="637" y="269" type="line"/>
      <point x="630" y="269" type="line"/>
      <point x="650" y="195"/>
      <point x="681" y="166"/>
      <point x="728" y="166" type="curve" smooth="yes"/>
      <point x="740" y="166"/>
      <point x="751" y="168"/>
      <point x="760" y="172" type="curve"/>
      <point x="760" y="192" type="line"/>
      <point x="752" y="188"/>
      <point x="743" y="186"/>
      <point x="731" y="186" type="curve" smooth="yes"/>
      <point x="691" y="186"/>
      <point x="671" y="205"/>
      <point x="650" y="269" type="curve" smooth="yes"/>
      <point x="640" y="300" type="line"/>
      <point x="629" y="300" type="line"/>
      <point x="583" y="170" type="line"/>
      <point x="592" y="170" type="line"/>
      <point x="534" y="308" type="line"/>
      <point x="519" y="308" type="line"/>
      <point x="475" y="163" type="line"/>
      <point x="484" y="164" type="line"/>
      <point x="401" y="316" type="line"/>
      <point x="386" y="316" type="line"/>
      <point x="386" y="198"/>
      <point x="325" y="103"/>
      <point x="216" y="103" type="curve" smooth="yes"/>
      <point x="127" y="103"/>
      <point x="72" y="157"/>
      <point x="72" y="253" type="curve" smooth="yes"/>
      <point x="72" y="328"/>
      <point x="106" y="382"/>
      <point x="180" y="382" type="curve" smooth="yes"/>
      <point x="241" y="382"/>
      <point x="273" y="345"/>
      <point x="273" y="293" type="curve" smooth="yes"/>
      <point x="273" y="271"/>
      <point x="268" y="257"/>
      <point x="258" y="243" type="curve"/>
      <point x="279" y="230" type="line"/>
      <point x="292" y="249"/>
      <point x="298" y="272"/>
      <point x="298" y="295" type="curve" smooth="yes"/>
      <point x="298" y="359"/>
      <point x="256" y="405"/>
      <point x="180" y="405" type="curve" smooth="yes"/>
      <point x="90" y="405"/>
      <point x="47" y="340"/>
      <point x="47" y="251" type="curve" smooth="yes"/>
      <point x="47" y="141"/>
      <point x="114" y="80"/>
    </contour>
  </outline>
</glyph>
<glyph name="hyphentwo" format="2">
  <advance width="322"/>
  <unicode hex="2010"/>
  <outline>
    <contour>
      <point x="40" y="259" type="line"/>
      <point x="282" y="259" type="line"/>
      <point x="282" y="284" type="line"/>
      <point x="40" y="284" type="line"/>
    </contour>
  </outline>
</glyph>
<glyph name="doChada-thai.short" format="2">
  <advance width="577"/>
  <anchor x="485" y="-85" name="bottom"/>
  <anchor x="475" y="506" name="top"/>
  <outline>
    <contour>
      <point x="135" y="-104" type="line"/>
      <point x="161" y="-104" type="line"/>
      <point x="161" y="-101" type="line" smooth="yes"/>
      <point x="161" y="-71"/>
      <point x="180" y="-36"/>
      <point x="259" y="-36" type="curve" smooth="yes"/>
      <point x="308" y="-36"/>
      <point x="372" y="-50"/>
      <point x="464" y="-104" type="curve"/>
      <point x="485" y="-104" type="line"/>
      <point x="485" y="353" type="line" smooth="yes"/>
      <point x="485" y="465"/>
      <point x="403" y="525"/>
      <point x="283" y="525" type="curve" smooth="yes"/>
      <point x="152" y="525"/>
      <point x="78" y="454"/>
      <point x="78" y="381" type="curve" smooth="yes"/>
      <point x="78" y="363" type="line"/>
      <point x="193" y="321" type="line"/>
      <point x="192" y="318" type="line"/>
      <point x="137" y="305"/>
      <point x="98" y="275"/>
      <point x="98" y="200" type="curve" smooth="yes"/>
      <point x="98" y="61" type="line" smooth="yes"/>
      <point x="98" y="31"/>
      <point x="92" y="18"/>
      <point x="67" y="18" type="curve" smooth="yes"/>
      <point x="56" y="18"/>
      <point x="46" y="21"/>
      <point x="37" y="25" type="curve"/>
      <point x="30" y="2" type="line"/>
      <point x="43" y="-4"/>
      <point x="58" y="-7"/>
      <point x="71" y="-7" type="curve" smooth="yes"/>
      <point x="102" y="-7"/>
      <point x="124" y="10"/>
      <point x="124" y="56" type="curve" smooth="yes"/>
      <point x="124" y="201" type="line" smooth="yes"/>
      <point x="124" y="268"/>
      <point x="160" y="295"/>
      <point x="213" y="300" type="curve"/>
      <point x="219" y="330" type="line"/>
      <point x="105" y="378" type="line"/>
      <point x="105" y="446"/>
      <point x="172" y="500"/>
      <point x="282" y="500" type="curve" smooth="yes"/>
      <point x="389" y="500"/>
      <point x="459" y="450"/>
      <point x="459" y="347" type="curve" smooth="yes"/>
      <point x="459" y="-87" type="line"/>
      <point x="467" y="-81" type="line"/>
      <point x="375" y="-27"/>
      <point x="317" y="-13"/>
      <point x="256" y="-13" type="curve" smooth="yes"/>
      <point x="163" y="-13"/>
      <point x="135" y="-56"/>
      <point x="135" y="-101" type="curve" smooth="yes"/>
    </contour>
  </outline>
</glyph>
<glyph name="loChula-thai.short" format="2">
  <advance width="635"/>
  <anchor x="513" y="0" name="bottom"/>
  <anchor x="513" y="506" name="top"/>
  <outline>
    <contour>
      <point x="126" y="0" type="line"/>
      <point x="156" y="0" type="line"/>
      <point x="278" y="264" type="line" smooth="yes"/>
      <point x="291" y="293"/>
      <point x="304" y="323"/>
      <point x="313" y="347" type="curve"/>
      <point x="317" y="347" type="line"/>
      <point x="326" y="323"/>
      <point x="341" y="293"/>
      <point x="354" y="264" type="curve" smooth="yes"/>
      <point x="474" y="0" type="line"/>
      <point x="504" y="0" type="line"/>
      <point x="559" y="345" type="line" smooth="yes"/>
      <point x="569" y="406"/>
      <point x="559" y="440"/>
      <point x="522" y="458" type="curve"/>
      <point x="522" y="461" type="line"/>
      <point x="568" y="468"/>
      <point x="606" y="490"/>
      <point x="606" y="551" type="curve"/>
      <point x="580" y="551" type="line"/>
      <point x="580" y="495"/>
      <point x="544" y="478"/>
      <point x="461" y="478" type="curve" smooth="yes"/>
      <point x="384" y="478" type="line"/>
      <point x="384" y="456" type="line"/>
      <point x="424" y="456" type="line" smooth="yes"/>
      <point x="525" y="456"/>
      <point x="548" y="431"/>
      <point x="533" y="336" type="curve" smooth="yes"/>
      <point x="510" y="190" type="line" smooth="yes"/>
      <point x="504" y="150"/>
      <point x="493" y="97"/>
      <point x="487" y="40" type="curve"/>
      <point x="483" y="40" type="line"/>
      <point x="462" y="90"/>
      <point x="446" y="128"/>
      <point x="422" y="180" type="curve" smooth="yes"/>
      <point x="327" y="384" type="line"/>
      <point x="303" y="384" type="line"/>
      <point x="210" y="180" type="line" smooth="yes"/>
      <point x="185" y="125"/>
      <point x="171" y="93"/>
      <point x="150" y="44" type="curve"/>
      <point x="146" y="44" type="line"/>
      <point x="140" y="101"/>
      <point x="132" y="150"/>
      <point x="126" y="189" type="curve" smooth="yes"/>
      <point x="80" y="517" type="line"/>
      <point x="53" y="517" type="line"/>
    </contour>
  </outline>
</glyph>
<glyph name="lu-thai.short" format="2">
  <advance width="577"/>
  <anchor x="485" y="-85" name="bottom"/>
  <anchor x="475" y="506" name="top"/>
  <outline>
    <contour>
      <point x="459" y="-104" type="line"/>
      <point x="485" y="-104" type="line"/>
      <point x="485" y="94" type="line"/>
      <point x="459" y="94" type="line"/>
    </contour>
    <component base="phoSamphao-thai"/>
  </outline>
</glyph>
<glyph name="lu_lakkhangyao-thai" format="2">
  <advance width="912"/>
  <outline>
    <contour>
      <point x="458" y="-180" type="line"/>
      <point x="484" y="-180" type="line"/>
      <point x="484" y="353" type="line" smooth="yes"/>
      <point x="484" y="442"/>
      <point x="543" y="500"/>
      <point x="643" y="500" type="curve" smooth="yes"/>
      <point x="735" y="500"/>
      <point x="794" y="450"/>
      <point x="794" y="356" type="curve" smooth="yes"/>
      <point x="794" y="-180" type="line"/>
      <point x="820" y="-180" type="line"/>
      <point x="820" y="362" type="line" smooth="yes"/>
      <point x="820" y="464"/>
      <point x="749" y="525"/>
      <point x="645" y="525" type="curve" smooth="yes"/>
      <point x="559" y="525"/>
      <point x="494" y="483"/>
      <point x="473" y="412" type="curve"/>
      <point x="469" y="412" type="line"/>
      <point x="448" y="478"/>
      <point x="387" y="525"/>
      <point x="282" y="525" type="curve" smooth="yes"/>
      <point x="153" y="525"/>
      <point x="78" y="454"/>
      <point x="78" y="381" type="curve" smooth="yes"/>
      <point x="78" y="363" type="line"/>
      <point x="193" y="321" type="line"/>
      <point x="192" y="318" type="line"/>
      <point x="137" y="305"/>
      <point x="98" y="275"/>
      <point x="98" y="200" type="curve" smooth="yes"/>
      <point x="98" y="58" type="line" smooth="yes"/>
      <point x="98" y="28"/>
      <point x="92" y="15"/>
      <point x="67" y="15" type="curve" smooth="yes"/>
      <point x="56" y="15"/>
      <point x="46" y="18"/>
      <point x="37" y="22" type="curve"/>
      <point x="30" y="-1" type="line"/>
      <point x="43" y="-7"/>
      <point x="58" y="-9"/>
      <point x="71" y="-9" type="curve" smooth="yes"/>
      <point x="102" y="-9"/>
      <point x="124" y="7"/>
      <point x="124" y="54" type="curve" smooth="yes"/>
      <point x="124" y="201" type="line" smooth="yes"/>
      <point x="124" y="268"/>
      <point x="160" y="295"/>
      <point x="213" y="300" type="curve"/>
      <point x="219" y="330" type="line"/>
      <point x="105" y="378" type="line"/>
      <point x="105" y="446"/>
      <point x="174" y="500"/>
      <point x="278" y="500" type="curve" smooth="yes"/>
      <point x="386" y="500"/>
      <point x="458" y="442"/>
      <point x="458" y="351" type="curve" smooth="yes"/>
    </contour>
  </outline>
</glyph>
<glyph name="macronbelowcomb.alt" format="2">
  <anchor x="-58" y="0" name="_bottom"/>
  <outline>
    <contour>
      <point x="-120" y="-102" type="line"/>
      <point x="-662" y="-102" type="line"/>
      <point x="-662" y="-126" type="line"/>
      <point x="-120" y="-126" type="line"/>
    </contour>
  </outline>
</glyph>
<glyph name="maiChattawa-thai.narrow" format="2">
  <anchor x="-194" y="506" name="_top"/>
  <anchor x="-310" y="814" name="top"/>
  <outline>
    <contour>
      <point x="-336" y="606" type="line"/>
      <point x="-310" y="606" type="line"/>
      <point x="-310" y="797" type="line"/>
      <point x="-336" y="797" type="line"/>
    </contour>
    <contour>
      <point x="-422" y="688" type="line"/>
      <point x="-224" y="688" type="line"/>
      <point x="-224" y="711" type="line"/>
      <point x="-422" y="711" type="line"/>
    </contour>
  </outline>
</glyph>
<glyph name="maiChattawa-thai.small" format="2">
  <anchor x="-104" y="742" name="_top"/>
  <anchor x="-104" y="959" name="top"/>
  <outline>
    <contour>
      <point x="-132" y="795" type="line"/>
      <point x="-107" y="795" type="line"/>
      <point x="-107" y="941" type="line"/>
      <point x="-132" y="941" type="line"/>
    </contour>
    <contour>
      <point x="-189" y="856" type="line"/>
      <point x="-50" y="856" type="line"/>
      <point x="-50" y="879" type="line"/>
      <point x="-189" y="879" type="line"/>
    </contour>
  </outline>
</glyph>
<glyph name="maiEk-thai.narrow" format="2">
  <anchor x="-194" y="506" name="_top"/>
  <anchor x="-294" y="815" name="top"/>
  <outline>
    <contour>
      <point x="-319" y="606" type="line"/>
      <point x="-293" y="606" type="line"/>
      <point x="-293" y="797" type="line"/>
      <point x="-319" y="797" type="line"/>
    </contour>
  </outline>
</glyph>
<glyph name="maiEk-thai.small" format="2">
  <anchor x="-104" y="742" name="_top"/>
  <anchor x="-104" y="959" name="top"/>
  <outline>
    <contour>
      <point x="-129" y="795" type="line"/>
      <point x="-104" y="795" type="line"/>
      <point x="-104" y="938" type="line"/>
      <point x="-129" y="938" type="line"/>
    </contour>
  </outline>
</glyph>
<glyph name="maiHanaKat-thai.narrow" format="2">
  <anchor x="-194" y="506" name="_top"/>
  <anchor x="-295" y="680" name="top"/>
  <outline>
    <contour>
      <point x="-394" y="606" type="curve" smooth="yes"/>
      <point x="-194" y="606" type="line"/>
      <point x="-194" y="630" type="line"/>
      <point x="-391" y="630" type="line" smooth="yes"/>
      <point x="-422" y="630"/>
      <point x="-433" y="642"/>
      <point x="-433" y="663" type="curve" smooth="yes"/>
      <point x="-433" y="674"/>
      <point x="-429" y="688"/>
      <point x="-425" y="696" type="curve"/>
      <point x="-449" y="700" type="line"/>
      <point x="-454" y="690"/>
      <point x="-458" y="672"/>
      <point x="-458" y="659" type="curve" smooth="yes"/>
      <point x="-458" y="629"/>
      <point x="-439" y="606"/>
    </contour>
  </outline>
</glyph>
<glyph name="maiTho-thai.narrow" format="2">
  <anchor x="-194" y="506" name="_top"/>
  <anchor x="-281" y="815" name="top"/>
  <outline>
    <contour>
      <point x="-419" y="606" type="line"/>
      <point x="-194" y="606" type="line"/>
      <point x="-194" y="630" type="line"/>
      <point x="-333" y="630" type="line"/>
      <point x="-334" y="633" type="line"/>
      <point x="-301" y="652"/>
      <point x="-276" y="681"/>
      <point x="-276" y="718" type="curve" smooth="yes"/>
      <point x="-276" y="763"/>
      <point x="-305" y="791"/>
      <point x="-353" y="791" type="curve" smooth="yes"/>
      <point x="-370" y="791"/>
      <point x="-392" y="786"/>
      <point x="-416" y="773" type="curve"/>
      <point x="-408" y="752" type="line"/>
      <point x="-392" y="760"/>
      <point x="-372" y="768"/>
      <point x="-356" y="768" type="curve" smooth="yes"/>
      <point x="-319" y="768"/>
      <point x="-302" y="748"/>
      <point x="-302" y="718" type="curve" smooth="yes"/>
      <point x="-302" y="670"/>
      <point x="-353" y="634"/>
      <point x="-419" y="623" type="curve"/>
    </contour>
  </outline>
</glyph>
<glyph name="maiTho-thai.small" format="2">
  <anchor x="-104" y="742" name="_top"/>
  <anchor x="-104" y="959" name="top"/>
  <outline>
    <contour>
      <point x="-202" y="795" type="line"/>
      <point x="-4" y="795" type="line"/>
      <point x="-4" y="819" type="line"/>
      <point x="-124" y="819" type="line"/>
      <point x="-125" y="822" type="line"/>
      <point x="-101" y="836"/>
      <point x="-89" y="856"/>
      <point x="-89" y="883" type="curve" smooth="yes"/>
      <point x="-89" y="918"/>
      <point x="-111" y="938"/>
      <point x="-147" y="938" type="curve" smooth="yes"/>
      <point x="-164" y="938"/>
      <point x="-181" y="934"/>
      <point x="-201" y="924" type="curve"/>
      <point x="-192" y="902" type="line"/>
      <point x="-179" y="909"/>
      <point x="-166" y="915"/>
      <point x="-150" y="915" type="curve" smooth="yes"/>
      <point x="-126" y="915"/>
      <point x="-115" y="903"/>
      <point x="-115" y="883" type="curve" smooth="yes"/>
      <point x="-115" y="855"/>
      <point x="-136" y="823"/>
      <point x="-202" y="812" type="curve"/>
    </contour>
  </outline>
</glyph>
<glyph name="maiTri-thai.narrow" format="2">
  <anchor x="-194" y="506" name="_top"/>
  <anchor x="-304" y="815" name="top"/>
  <outline>
    <contour>
      <point x="-414" y="601" type="curve" smooth="yes"/>
      <point x="-400" y="601"/>
      <point x="-388" y="604"/>
      <point x="-380" y="608" type="curve"/>
      <point x="-386" y="629" type="line"/>
      <point x="-392" y="626"/>
      <point x="-401" y="624"/>
      <point x="-410" y="624" type="curve" smooth="yes"/>
      <point x="-442" y="624"/>
      <point x="-466" y="647"/>
      <point x="-466" y="693" type="curve" smooth="yes"/>
      <point x="-466" y="740"/>
      <point x="-440" y="759"/>
      <point x="-415" y="762" type="curve"/>
      <point x="-371" y="731" type="line"/>
      <point x="-362" y="731" type="line"/>
      <point x="-319" y="762" type="line"/>
      <point x="-291" y="754"/>
      <point x="-267" y="733"/>
      <point x="-267" y="693" type="curve" smooth="yes"/>
      <point x="-267" y="656"/>
      <point x="-287" y="631"/>
      <point x="-315" y="621" type="curve"/>
      <point x="-315" y="606" type="line"/>
      <point x="-194" y="606" type="line"/>
      <point x="-194" y="627" type="line"/>
      <point x="-267" y="627" type="line"/>
      <point x="-268" y="630" type="line"/>
      <point x="-249" y="646"/>
      <point x="-241" y="670"/>
      <point x="-241" y="695" type="curve" smooth="yes"/>
      <point x="-241" y="748"/>
      <point x="-277" y="777"/>
      <point x="-318" y="789" type="curve"/>
      <point x="-367" y="753" type="line"/>
      <point x="-416" y="789" type="line"/>
      <point x="-460" y="783"/>
      <point x="-492" y="749"/>
      <point x="-492" y="692" type="curve" smooth="yes"/>
      <point x="-492" y="634"/>
      <point x="-459" y="601"/>
    </contour>
  </outline>
</glyph>
<glyph name="maiTri-thai.small" format="2">
  <anchor x="-104" y="742" name="_top"/>
  <anchor x="-104" y="959" name="top"/>
  <outline>
    <contour>
      <point x="-179" y="790" type="curve" smooth="yes"/>
      <point x="-166" y="790"/>
      <point x="-155" y="793"/>
      <point x="-149" y="796" type="curve"/>
      <point x="-155" y="817" type="line"/>
      <point x="-163" y="814"/>
      <point x="-169" y="813"/>
      <point x="-176" y="813" type="curve" smooth="yes"/>
      <point x="-210" y="813"/>
      <point x="-227" y="837"/>
      <point x="-227" y="867" type="curve" smooth="yes"/>
      <point x="-227" y="904"/>
      <point x="-201" y="916"/>
      <point x="-184" y="919" type="curve"/>
      <point x="-137" y="884" type="line"/>
      <point x="-131" y="884" type="line"/>
      <point x="-84" y="918" type="line"/>
      <point x="-68" y="913"/>
      <point x="-48" y="898"/>
      <point x="-48" y="869" type="curve" smooth="yes"/>
      <point x="-48" y="842"/>
      <point x="-65" y="820"/>
      <point x="-92" y="810" type="curve"/>
      <point x="-92" y="795" type="line"/>
      <point x="44" y="795" type="line"/>
      <point x="44" y="816" type="line"/>
      <point x="-42" y="816" type="line"/>
      <point x="-43" y="819" type="line"/>
      <point x="-27" y="833"/>
      <point x="-22" y="855"/>
      <point x="-22" y="872" type="curve" smooth="yes"/>
      <point x="-22" y="907"/>
      <point x="-44" y="932"/>
      <point x="-87" y="942" type="curve"/>
      <point x="-134" y="907" type="line"/>
      <point x="-181" y="942" type="line"/>
      <point x="-220" y="936"/>
      <point x="-253" y="913"/>
      <point x="-253" y="866" type="curve" smooth="yes"/>
      <point x="-253" y="821"/>
      <point x="-223" y="790"/>
    </contour>
  </outline>
</glyph>
<glyph name="maitaikhu-thai.narrow" format="2">
  <anchor x="-194" y="506" name="_top"/>
  <anchor x="-341" y="794" name="top"/>
  <outline>
    <contour>
      <point x="-260" y="591" type="curve" smooth="yes"/>
      <point x="-224" y="591"/>
      <point x="-192" y="612"/>
      <point x="-192" y="664" type="curve" smooth="yes"/>
      <point x="-192" y="678" type="line"/>
      <point x="-218" y="678" type="line"/>
      <point x="-218" y="664" type="line" smooth="yes"/>
      <point x="-218" y="631"/>
      <point x="-234" y="616"/>
      <point x="-263" y="616" type="curve" smooth="yes"/>
      <point x="-294" y="616"/>
      <point x="-316" y="639"/>
      <point x="-328" y="678" type="curve"/>
      <point x="-343" y="678" type="line"/>
      <point x="-397" y="619" type="line"/>
      <point x="-437" y="619"/>
      <point x="-463" y="646"/>
      <point x="-463" y="691" type="curve" smooth="yes"/>
      <point x="-463" y="747"/>
      <point x="-432" y="772"/>
      <point x="-386" y="772" type="curve" smooth="yes"/>
      <point x="-193" y="772" type="line"/>
      <point x="-193" y="797" type="line"/>
      <point x="-393" y="797" type="line" smooth="yes"/>
      <point x="-447" y="797"/>
      <point x="-490" y="760"/>
      <point x="-490" y="695" type="curve" smooth="yes"/>
      <point x="-490" y="630"/>
      <point x="-453" y="594"/>
      <point x="-389" y="594" type="curve"/>
      <point x="-342" y="649" type="line"/>
      <point x="-325" y="613"/>
      <point x="-299" y="591"/>
    </contour>
  </outline>
</glyph>
<glyph name="phinthu-thai.small" format="2">
  <anchor x="-92" y="-85" name="_bottom"/>
  <anchor x="-92" y="-186" name="bottom"/>
  <outline>
    <contour>
      <point x="-108" y="-209" type="curve" smooth="yes"/>
      <point x="-86" y="-209"/>
      <point x="-73" y="-197"/>
      <point x="-73" y="-174" type="curve" smooth="yes"/>
      <point x="-73" y="-151"/>
      <point x="-86" y="-139"/>
      <point x="-108" y="-139" type="curve" smooth="yes"/>
      <point x="-130" y="-139"/>
      <point x="-143" y="-151"/>
      <point x="-143" y="-174" type="curve" smooth="yes"/>
      <point x="-143" y="-197"/>
      <point x="-130" y="-209"/>
    </contour>
  </outline>
</glyph>
<glyph name="ru-thai.short" format="2">
  <advance width="576"/>
  <anchor x="485" y="-85" name="bottom"/>
  <anchor x="474" y="506" name="top"/>
  <outline>
    <contour>
      <point x="458" y="-104" type="line"/>
      <point x="484" y="-104" type="line"/>
      <point x="484" y="94" type="line"/>
      <point x="458" y="94" type="line"/>
    </contour>
    <component base="thoThung-thai"/>
  </outline>
</glyph>
<glyph name="ru_lakkhangyao-thai" format="2">
  <advance width="911"/>
  <outline>
    <contour>
      <point x="457" y="-180" type="line"/>
      <point x="483" y="-180" type="line"/>
      <point x="483" y="353" type="line" smooth="yes"/>
      <point x="483" y="442"/>
      <point x="542" y="500"/>
      <point x="642" y="500" type="curve" smooth="yes"/>
      <point x="734" y="500"/>
      <point x="793" y="450"/>
      <point x="793" y="356" type="curve" smooth="yes"/>
      <point x="793" y="-180" type="line"/>
      <point x="819" y="-180" type="line"/>
      <point x="819" y="362" type="line" smooth="yes"/>
      <point x="819" y="464"/>
      <point x="748" y="525"/>
      <point x="644" y="525" type="curve" smooth="yes"/>
      <point x="558" y="525"/>
      <point x="493" y="483"/>
      <point x="472" y="412" type="curve"/>
      <point x="468" y="412" type="line"/>
      <point x="447" y="478"/>
      <point x="386" y="525"/>
      <point x="281" y="525" type="curve" smooth="yes"/>
      <point x="152" y="525"/>
      <point x="77" y="454"/>
      <point x="77" y="381" type="curve" smooth="yes"/>
      <point x="77" y="363" type="line"/>
      <point x="192" y="321" type="line"/>
      <point x="191" y="318" type="line"/>
      <point x="136" y="305"/>
      <point x="90" y="275"/>
      <point x="90" y="200" type="curve" smooth="yes"/>
      <point x="90" y="57" type="line" smooth="yes"/>
      <point x="90" y="10"/>
      <point x="124" y="-9"/>
      <point x="162" y="-9" type="curve" smooth="yes"/>
      <point x="178" y="-9"/>
      <point x="199" y="-6"/>
      <point x="214" y="1" type="curve"/>
      <point x="208" y="23" type="line"/>
      <point x="197" y="19"/>
      <point x="178" y="15"/>
      <point x="163" y="15" type="curve" smooth="yes"/>
      <point x="135" y="15"/>
      <point x="116" y="29"/>
      <point x="116" y="63" type="curve" smooth="yes"/>
      <point x="116" y="201" type="line" smooth="yes"/>
      <point x="116" y="268"/>
      <point x="159" y="295"/>
      <point x="212" y="300" type="curve"/>
      <point x="218" y="330" type="line"/>
      <point x="104" y="378" type="line"/>
      <point x="104" y="446"/>
      <point x="173" y="500"/>
      <point x="277" y="500" type="curve" smooth="yes"/>
      <point x="385" y="500"/>
      <point x="457" y="442"/>
      <point x="457" y="351" type="curve" smooth="yes"/>
    </contour>
  </outline>
</glyph>
<glyph name="saraI-thai.narrow" format="2">
  <anchor x="-194" y="506" name="_top"/>
  <anchor x="-194" y="684" name="top"/>
  <outline>
    <contour>
      <point x="-512" y="606" type="line"/>
      <point x="-194" y="606" type="line"/>
      <point x="-194" y="630" type="line"/>
      <point x="-484" y="630" type="line"/>
      <point x="-512" y="620" type="line"/>
    </contour>
  </outline>
</glyph>
<glyph name="saraIi-thai.narrow" format="2">
  <anchor x="-194" y="506" name="_top"/>
  <anchor x="-194" y="742" name="top"/>
  <outline>
    <contour>
      <point x="-512" y="606" type="line"/>
      <point x="-194" y="606" type="line"/>
      <point x="-194" y="630" type="line"/>
      <point x="-484" y="630" type="line"/>
      <point x="-512" y="620" type="line"/>
    </contour>
    <contour>
      <point x="-219" y="606" type="line"/>
      <point x="-194" y="606" type="line"/>
      <point x="-194" y="700" type="line"/>
      <point x="-219" y="700" type="line"/>
    </contour>
  </outline>
</glyph>
<glyph name="saraU-thai.small" format="2">
  <anchor x="-92" y="-85" name="_bottom"/>
  <anchor x="-92" y="-225" name="bottom"/>
  <outline>
    <contour>
      <point x="-118" y="-246" type="line"/>
      <point x="-92" y="-246" type="line"/>
      <point x="-92" y="-173" type="line" smooth="yes"/>
      <point x="-92" y="-153"/>
      <point x="-106" y="-139"/>
      <point x="-130" y="-139" type="curve" smooth="yes"/>
      <point x="-139" y="-139"/>
      <point x="-150" y="-140"/>
      <point x="-162" y="-145" type="curve"/>
      <point x="-159" y="-167" type="line"/>
      <point x="-153" y="-165"/>
      <point x="-144" y="-163"/>
      <point x="-138" y="-163" type="curve" smooth="yes"/>
      <point x="-123" y="-163"/>
      <point x="-118" y="-170"/>
      <point x="-118" y="-187" type="curve" smooth="yes"/>
    </contour>
  </outline>
</glyph>
<glyph name="saraUe-thai.narrow" format="2">
  <anchor x="-194" y="506" name="_top"/>
  <anchor x="-243" y="742" name="top"/>
  <outline>
    <contour>
      <point x="-511" y="606" type="line"/>
      <point x="-252" y="606" type="line" smooth="yes"/>
      <point x="-212" y="606"/>
      <point x="-179" y="627"/>
      <point x="-179" y="670" type="curve" smooth="yes"/>
      <point x="-179" y="713"/>
      <point x="-210" y="734"/>
      <point x="-248" y="734" type="curve" smooth="yes"/>
      <point x="-285" y="734"/>
      <point x="-316" y="714"/>
      <point x="-316" y="671" type="curve" smooth="yes"/>
      <point x="-316" y="649"/>
      <point x="-304" y="627"/>
      <point x="-285" y="617" type="curve"/>
      <point x="-281" y="630" type="line"/>
      <point x="-483" y="630" type="line"/>
      <point x="-511" y="620" type="line"/>
    </contour>
    <contour>
      <point x="-248" y="630" type="curve" smooth="yes"/>
      <point x="-272" y="630"/>
      <point x="-290" y="645"/>
      <point x="-290" y="670" type="curve" smooth="yes"/>
      <point x="-290" y="695"/>
      <point x="-272" y="710"/>
      <point x="-248" y="710" type="curve" smooth="yes"/>
      <point x="-224" y="710"/>
      <point x="-206" y="695"/>
      <point x="-206" y="670" type="curve" smooth="yes"/>
      <point x="-206" y="645"/>
      <point x="-224" y="630"/>
    </contour>
  </outline>
</glyph>
<glyph name="saraUee-thai.narrow" format="2">
  <anchor x="-194" y="506" name="_top"/>
  <anchor x="-234" y="742" name="top"/>
  <outline>
    <contour>
      <point x="-512" y="606" type="line"/>
      <point x="-194" y="606" type="line"/>
      <point x="-194" y="630" type="line"/>
      <point x="-484" y="630" type="line"/>
      <point x="-512" y="620" type="line"/>
    </contour>
    <contour>
      <point x="-300" y="624" type="line"/>
      <point x="-277" y="624" type="line"/>
      <point x="-277" y="713" type="line"/>
      <point x="-300" y="713" type="line"/>
    </contour>
    <contour>
      <point x="-217" y="624" type="line"/>
      <point x="-194" y="624" type="line"/>
      <point x="-194" y="713" type="line"/>
      <point x="-217" y="713" type="line"/>
    </contour>
  </outline>
</glyph>
<glyph name="saraUu-thai.small" format="2">
  <anchor x="-92" y="-85" name="_bottom"/>
  <anchor x="-92" y="-226" name="bottom"/>
  <outline>
    <contour>
      <point x="-182" y="-243" type="curve" smooth="yes"/>
      <point x="-124" y="-243"/>
      <point x="-92" y="-222"/>
      <point x="-92" y="-180" type="curve" smooth="yes"/>
      <point x="-92" y="-139" type="line"/>
      <point x="-118" y="-139" type="line"/>
      <point x="-118" y="-181" type="line" smooth="yes"/>
      <point x="-118" y="-210"/>
      <point x="-141" y="-220"/>
      <point x="-182" y="-220" type="curve" smooth="yes"/>
      <point x="-223" y="-220"/>
      <point x="-244" y="-210"/>
      <point x="-244" y="-181" type="curve" smooth="yes"/>
      <point x="-244" y="-174" type="line" smooth="yes"/>
      <point x="-244" y="-148"/>
      <point x="-257" y="-136"/>
      <point x="-279" y="-136" type="curve" smooth="yes"/>
      <point x="-285" y="-136"/>
      <point x="-291" y="-137"/>
      <point x="-297" y="-138" type="curve"/>
      <point x="-294" y="-161" type="line"/>
      <point x="-280" y="-158"/>
      <point x="-270" y="-162"/>
      <point x="-270" y="-176" type="curve" smooth="yes"/>
      <point x="-270" y="-182" type="line" smooth="yes"/>
      <point x="-270" y="-222"/>
      <point x="-240" y="-243"/>
    </contour>
  </outline>
</glyph>
<glyph name="thanthakhat-thai.narrow" format="2">
  <anchor x="-194" y="506" name="_top"/>
  <anchor x="-283" y="683" name="top"/>
  <outline>
    <contour>
      <point x="-397" y="576" type="curve"/>
      <point x="-373" y="581" type="line"/>
      <point x="-379" y="590"/>
      <point x="-382" y="601"/>
      <point x="-382" y="611" type="curve" smooth="yes"/>
      <point x="-382" y="632"/>
      <point x="-372" y="644"/>
      <point x="-339" y="644" type="curve" smooth="yes"/>
      <point x="-193" y="644" type="line"/>
      <point x="-193" y="668" type="line"/>
      <point x="-345" y="668" type="line" smooth="yes"/>
      <point x="-384" y="668"/>
      <point x="-407" y="648"/>
      <point x="-407" y="616" type="curve" smooth="yes"/>
      <point x="-407" y="601"/>
      <point x="-404" y="587"/>
    </contour>
  </outline>
</glyph>
<glyph name="thanthakhat-thai.small" format="2">
  <anchor x="-104" y="742" name="_top"/>
  <anchor x="-104" y="959" name="top"/>
  <outline>
    <contour>
      <point x="-191" y="791" type="curve"/>
      <point x="-167" y="796" type="line"/>
      <point x="-173" y="805"/>
      <point x="-176" y="816"/>
      <point x="-176" y="826" type="curve" smooth="yes"/>
      <point x="-176" y="847"/>
      <point x="-166" y="859"/>
      <point x="-133" y="859" type="curve" smooth="yes"/>
      <point x="-17" y="859" type="line"/>
      <point x="-17" y="883" type="line"/>
      <point x="-139" y="883" type="line" smooth="yes"/>
      <point x="-178" y="883"/>
      <point x="-201" y="863"/>
      <point x="-201" y="831" type="curve" smooth="yes"/>
      <point x="-201" y="816"/>
      <point x="-198" y="802"/>
    </contour>
  </outline>
</glyph>
<glyph name="thoThan-thai.less" format="2">
  <advance width="532"/>
  <anchor x="380" y="0" name="bottom"/>
  <anchor x="448" y="506" name="top"/>
  <outline>
    <contour>
      <point x="166" y="0" type="line"/>
      <point x="194" y="0" type="line" smooth="yes"/>
      <point x="356" y="0"/>
      <point x="440" y="68"/>
      <point x="440" y="259" type="curve" smooth="yes"/>
      <point x="440" y="354"/>
      <point x="424" y="422"/>
      <point x="385" y="465" type="curve"/>
      <point x="353" y="506"/>
      <point x="299" y="525"/>
      <point x="222" y="525" type="curve" smooth="yes"/>
      <point x="149" y="525"/>
      <point x="83" y="501"/>
      <point x="45" y="482" type="curve"/>
      <point x="45" y="454" type="line"/>
      <point x="98" y="482"/>
      <point x="155" y="500"/>
      <point x="215" y="500" type="curve" smooth="yes"/>
      <point x="355" y="500"/>
      <point x="412" y="437"/>
      <point x="412" y="260" type="curve" smooth="yes"/>
      <point x="412" y="78"/>
      <point x="326" y="25"/>
      <point x="207" y="25" type="curve" smooth="yes"/>
      <point x="192" y="25" type="line"/>
      <point x="192" y="283" type="line"/>
      <point x="92" y="283" type="line"/>
      <point x="92" y="261" type="line"/>
      <point x="166" y="261" type="line"/>
    </contour>
    <contour>
      <point x="379" y="452" type="line"/>
      <point x="438" y="465"/>
      <point x="482" y="498"/>
      <point x="482" y="551" type="curve"/>
      <point x="454" y="551" type="line"/>
      <point x="454" y="503"/>
      <point x="415" y="481"/>
      <point x="365" y="470" type="curve"/>
    </contour>
  </outline>
</glyph>
<glyph name="toPatak-thai.short" format="2">
  <advance width="577"/>
  <anchor x="485" y="-85" name="bottom"/>
  <anchor x="475" y="506" name="top"/>
  <outline>
    <contour>
      <point x="90" y="-104" type="line"/>
      <point x="116" y="-104" type="line"/>
      <point x="116" y="-95" type="line" smooth="yes"/>
      <point x="116" y="-65"/>
      <point x="136" y="-44"/>
      <point x="182" y="-44" type="curve" smooth="yes"/>
      <point x="233" y="-44"/>
      <point x="269" y="-73"/>
      <point x="294" y="-104" type="curve"/>
      <point x="302" y="-104" type="line"/>
      <point x="376" y="-52" type="line"/>
      <point x="462" y="-104" type="line"/>
      <point x="485" y="-104" type="line"/>
      <point x="485" y="353" type="line" smooth="yes"/>
      <point x="485" y="465"/>
      <point x="403" y="525"/>
      <point x="283" y="525" type="curve" smooth="yes"/>
      <point x="152" y="525"/>
      <point x="78" y="454"/>
      <point x="78" y="381" type="curve" smooth="yes"/>
      <point x="78" y="363" type="line"/>
      <point x="193" y="321" type="line"/>
      <point x="192" y="318" type="line"/>
      <point x="137" y="305"/>
      <point x="98" y="275"/>
      <point x="98" y="200" type="curve" smooth="yes"/>
      <point x="98" y="61" type="line" smooth="yes"/>
      <point x="98" y="31"/>
      <point x="92" y="18"/>
      <point x="67" y="18" type="curve" smooth="yes"/>
      <point x="56" y="18"/>
      <point x="46" y="21"/>
      <point x="37" y="25" type="curve"/>
      <point x="30" y="2" type="line"/>
      <point x="43" y="-4"/>
      <point x="58" y="-7"/>
      <point x="70" y="-7" type="curve" smooth="yes"/>
      <point x="102" y="-7"/>
      <point x="124" y="10"/>
      <point x="124" y="56" type="curve" smooth="yes"/>
      <point x="124" y="201" type="line" smooth="yes"/>
      <point x="124" y="268"/>
      <point x="160" y="295"/>
      <point x="213" y="300" type="curve"/>
      <point x="219" y="330" type="line"/>
      <point x="105" y="378" type="line"/>
      <point x="105" y="446"/>
      <point x="172" y="500"/>
      <point x="282" y="500" type="curve" smooth="yes"/>
      <point x="389" y="500"/>
      <point x="459" y="450"/>
      <point x="459" y="347" type="curve" smooth="yes"/>
      <point x="459" y="-87" type="line"/>
      <point x="468" y="-82" type="line"/>
      <point x="376" y="-26" type="line"/>
      <point x="303" y="-77" type="line"/>
      <point x="278" y="-46"/>
      <point x="237" y="-20"/>
      <point x="180" y="-20" type="curve" smooth="yes"/>
      <point x="124" y="-20"/>
      <point x="90" y="-48"/>
      <point x="90" y="-91" type="curve" smooth="yes"/>
    </contour>
  </outline>
</glyph>
<glyph name="yoYing-thai.less" format="2">
  <advance width="880"/>
  <anchor x="768" y="0" name="bottom"/>
  <anchor x="788" y="506" name="top"/>
  <outline>
    <contour>
      <point x="607" y="-9" type="curve" smooth="yes"/>
      <point x="717" y="-9"/>
      <point x="788" y="50"/>
      <point x="788" y="146" type="curve" smooth="yes"/>
      <point x="788" y="517" type="line"/>
      <point x="762" y="517" type="line"/>
      <point x="762" y="149" type="line" smooth="yes"/>
      <point x="762" y="59"/>
      <point x="695" y="15"/>
      <point x="607" y="15" type="curve" smooth="yes"/>
      <point x="519" y="15"/>
      <point x="456" y="59"/>
      <point x="456" y="149" type="curve" smooth="yes"/>
      <point x="456" y="353" type="line" smooth="yes"/>
      <point x="456" y="471"/>
      <point x="378" y="525"/>
      <point x="268" y="525" type="curve" smooth="yes"/>
      <point x="149" y="525"/>
      <point x="77" y="461"/>
      <point x="77" y="381" type="curve" smooth="yes"/>
      <point x="77" y="363" type="line"/>
      <point x="192" y="321" type="line"/>
      <point x="191" y="318" type="line"/>
      <point x="136" y="305"/>
      <point x="90" y="275"/>
      <point x="90" y="200" type="curve" smooth="yes"/>
      <point x="90" y="83" type="line" smooth="yes"/>
      <point x="90" y="19"/>
      <point x="133" y="-7"/>
      <point x="192" y="-7" type="curve" smooth="yes"/>
      <point x="215" y="-7"/>
      <point x="233" y="-3"/>
      <point x="253" y="5" type="curve"/>
      <point x="247" y="27" type="line"/>
      <point x="232" y="22"/>
      <point x="210" y="17"/>
      <point x="191" y="17" type="curve" smooth="yes"/>
      <point x="146" y="17"/>
      <point x="116" y="39"/>
      <point x="116" y="84" type="curve" smooth="yes"/>
      <point x="116" y="201" type="line" smooth="yes"/>
      <point x="116" y="268"/>
      <point x="159" y="295"/>
      <point x="212" y="300" type="curve"/>
      <point x="218" y="330" type="line"/>
      <point x="104" y="378" type="line"/>
      <point x="104" y="452"/>
      <point x="169" y="500"/>
      <point x="267" y="500" type="curve" smooth="yes"/>
      <point x="364" y="500"/>
      <point x="430" y="457"/>
      <point x="430" y="347" type="curve" smooth="yes"/>
      <point x="430" y="146" type="line" smooth="yes"/>
      <point x="430" y="50"/>
      <point x="497" y="-9"/>
    </contour>
  </outline>
</glyph>
